<?xml version="1.0" standalone="no"?>
<!DOCTYPE svg PUBLIC "-//W3C//DTD SVG 1.1//EN" "http://www.w3.org/Graphics/SVG/1.1/DTD/svg11.dtd" >
<svg xmlns="http://www.w3.org/2000/svg">
<metadata></metadata>
<defs>
<font id="kristen_itcregular" horiz-adv-x="870" >
<font-face units-per-em="2048" ascent="1638" descent="-410" />
<missing-glyph horiz-adv-x="521" />
<glyph horiz-adv-x="2048" />
<glyph horiz-adv-x="2048" />
<glyph unicode="&#xd;" horiz-adv-x="2048" />
<glyph unicode=" "  horiz-adv-x="521" />
<glyph unicode="&#x09;" horiz-adv-x="521" />
<glyph unicode="&#xa0;" horiz-adv-x="521" />
<glyph unicode="!" horiz-adv-x="435" d="M120 566q0 224 87 517q44 146 120 146q56 0 56 -63q0 -24 -38 -172q-59 -223 -70 -482q-6 -117 -10 -135q-12 -46 -59 -46q-49 0 -68 56q-18 52 -18 179zM136 98q0 41 27 68t68 27t67 -26.5t26 -68.5q0 -44 -26.5 -72.5t-66.5 -28.5t-67.5 28.5t-27.5 72.5z" />
<glyph unicode="&#x22;" horiz-adv-x="635" d="M118 919q0 294 84 294q54 0 54 -59q0 -21 -9 -70q-10 -55 -12 -83q-1 -58 -5 -146q-8 -75 -49 -75q-63 0 -63 139zM376 759q0 11 16 47q22 51 33 81q18 55 27 189q6 75 18 102q15 33 52 33q61 0 61 -102q0 -164 -53 -286q-48 -112 -102 -112q-52 0 -52 48z" />
<glyph unicode="#" horiz-adv-x="1184" d="M-8 432q0 63 86 63q1 0 58 -4q62 -2 127 -4q23 54 109 254q-45 -1 -97 -2q-45 -3 -52 -3q-95 0 -95 60q0 54 70 67q26 4 225 9q39 109 79 219q34 75 81 75q55 0 55 -50q0 -42 -75 -242h213q80 194 95 222q40 75 88 75q54 0 54 -55q0 -23 -32 -90q-46 -93 -67 -154h23 q60 0 117 5t54 5q68 0 68 -62q0 -71 -140 -71h-64q-65 0 -108 -2l-91 -240q155 -4 199 -14q62 -14 62 -66q0 -63 -85 -63q-7 0 -70 6q-75 7 -146 12q-42 -126 -84 -251q-33 -84 -78 -84q-63 0 -63 64q0 6 91 263q-126 -10 -251 -10q-39 -114 -77 -228q-27 -78 -69 -78 q-61 0 -61 76q0 43 71 228q-136 4 -169 11q-51 12 -51 59zM397 487q138 3 242 13l94 249h-223z" />
<glyph unicode="$" horiz-adv-x="809" d="M30 304q0 65 42.5 108.5t103.5 43.5q36 0 59.5 -22.5t23.5 -57.5q0 -20 -33 -38.5t-33 -38.5q0 -31 49 -59q55 -31 127 -31q92 0 154 50t62 123q0 116 -228 227q-176 86 -202 107q-80 60 -80 163q0 99 76 185q80 91 209 127q7 128 28 175q24 54 89 54q39 0 64 -23t25 -60 q0 -16 -9 -53q-12 -50 -16 -74q108 -21 168 -88.5t60 -164.5q0 -121 -109 -121q-77 0 -77 54q0 19 12 43v4q0 57 -38.5 92.5t-96.5 35.5q-80 0 -150 -59q-66 -57 -66 -114q0 -39 42 -69q25 -18 119 -61q185 -83 261 -160q88 -89 88 -220q0 -120 -85 -206q-87 -88 -230 -106 q-20 -92 -39 -185q-20 -56 -80 -56q-87 0 -87 78q0 38 25 168q-228 53 -228 229z" />
<glyph unicode="%" horiz-adv-x="1357" d="M33 809q0 157 73 240.5t209 83.5q144 0 223.5 -79t79.5 -224q0 -139 -86.5 -229.5t-217.5 -90.5q-129 0 -205 81t-76 218zM191 824q0 -92 40.5 -146.5t102.5 -54.5q51 0 88.5 58.5t37.5 143.5q0 171 -185 175q-84 -52 -84 -176zM196 198q422 339 577 742q57 146 59 152 q30 52 90 52q65 0 65 -46q0 -61 -74 -220q-95 -204 -257 -423q-256 -349 -382 -349q-59 0 -78 92zM717 292q0 340 266 340q157 0 251.5 -93.5t94.5 -251.5q0 -136 -82.5 -219t-210.5 -83q-96 0 -158.5 46.5t-76.5 128.5q-84 20 -84 132zM862 331q0 -17 5 -60q46 -12 71 -43 q13 -16 37 -66q22 -47 61 -47q137 0 137 171q0 98 -57 157t-146 59q-108 0 -108 -171z" />
<glyph unicode="&#x26;" horiz-adv-x="1044" d="M66 578q0 124 79 201.5t205 77.5q36 0 68 -13q-30 103 -86 222q-45 96 -45 118q0 62 61 62q91 0 163 -195q77 -210 104 -576q105 19 188 87q50 41 144 152q32 38 65 38q59 0 59 -63q0 -53 -82 -142q-148 -162 -369 -220q-4 -152 -14 -216q-25 -151 -96 -151q-75 0 -75 85 q0 5 14 88q14 89 18 175q-8 0 -20.5 -1t-18.5 -1q-171 0 -266.5 73t-95.5 199zM212 609q0 -73 55 -120t147 -47q29 0 58 5q-2 153 -31 219q-31 70 -105 70q-56 0 -90 -35t-34 -92z" />
<glyph unicode="'" horiz-adv-x="374" d="M111 1116q0 83 67 83q63 0 80 -100q6 -37 6 -154q0 -141 -12 -186q-16 -56 -68 -56q-68 0 -68 105q0 20 3 61t3 63q0 35 -5.5 97t-5.5 87z" />
<glyph unicode="(" horiz-adv-x="531" d="M73 473q0 264 105 455q86 158 169 248q75 83 121 83q73 0 73 -60q0 -28 -31 -67q-41 -47 -82 -92q-197 -233 -197 -575q0 -204 112 -369q25 -35 51 -70q22 -32 22 -54q0 -65 -77 -65q-34 0 -71 39q-195 202 -195 527z" />
<glyph unicode=")" horiz-adv-x="470" d="M87 -5q0 13 42 127q94 256 94 470q0 192 -52 345q-29 81 -58 164q-25 70 -25 100q0 66 65 66q47 0 81 -54q24 -37 69 -158q74 -199 74 -427q0 -269 -90 -525q-32 -91 -59 -128q-32 -43 -78 -43q-63 0 -63 63z" />
<glyph unicode="*" horiz-adv-x="748" d="M45 630q0 41 55 98q64 66 174 123q-216 119 -216 195q0 59 64 59q34 0 75 -42q62 -62 95 -83q-6 77 -28 151q-18 67 -18 72q0 45 48 45q128 0 128 -289q141 68 221 68q49 0 81.5 -25.5t32.5 -61.5q0 -40 -45 -40q-9 0 -24.5 1t-21.5 1q-93 0 -193 -53q29 -47 73 -82 l70 -50q45 -32 45 -66q0 -23 -24 -41t-57 -18q-69 0 -213 186q-77 -38 -138 -105l-78 -90q-26 -26 -50 -26q-56 0 -56 73z" />
<glyph unicode="+" horiz-adv-x="957" d="M83 575q0 66 98 66q105 0 253 -16q7 126 15 251q13 81 68 81q68 0 68 -93q0 -11 -4 -85q-6 -91 -8 -173q196 -29 238 -41q76 -22 76 -70q0 -61 -74 -61q-17 0 -88 12q-103 20 -168 29q-21 -231 -29 -264q-18 -83 -72 -83q-62 0 -62 84q0 5 10 91q12 97 18 193 q-128 8 -255 15q-84 9 -84 64z" />
<glyph unicode="," horiz-adv-x="521" d="M111 271q0 116 133 116q73 0 119 -59.5t46 -160.5q0 -122 -58 -214q-50 -81 -100 -81q-56 0 -56 55q0 19 40 87.5t40 131.5q0 4 -0.5 11t-0.5 12q-33 -13 -63 -13q-100 0 -100 115z" />
<glyph unicode="-" horiz-adv-x="504" d="M30 630q0 76 119 95q39 6 185 6q138 0 138 -83q0 -88 -96 -88q-4 0 -29.5 2t-47.5 2q-28 0 -92.5 -6t-100.5 -6q-76 0 -76 78z" />
<glyph unicode="." horiz-adv-x="521" d="M128 211q0 53 38.5 90.5t94.5 37.5q129 0 129 -120q0 -63 -38 -101t-100 -38q-54 0 -89 37t-35 94z" />
<glyph unicode="/" horiz-adv-x="644" d="M20 -10q0 79 68 374q68 281 133 460q109 294 202 455q51 89 113 89q34 0 56.5 -19.5t22.5 -46.5q0 -23 -68 -154q-77 -150 -120 -251q-86 -204 -148 -441q-42 -156 -67 -320q-22 -141 -26 -150q-18 -46 -32 -62q-19 -22 -53 -22q-35 0 -58 24.5t-23 63.5z" />
<glyph unicode="0" horiz-adv-x="1044" d="M42 513q0 275 150.5 445t373.5 170q196 0 310 -133.5t114 -368.5q0 -280 -130.5 -449t-346.5 -169q-214 0 -342.5 136t-128.5 369zM211 520q0 -169 84 -268q82 -97 217 -97q128 0 219 126t91 311q0 181 -74 287t-196 106q-146 0 -242 -125q-99 -130 -99 -340z" />
<glyph unicode="1" horiz-adv-x="800" d="M50 122q0 66 65 66q14 0 66 -12q61 -14 106 -20q141 487 141 816v11q-213 -99 -300 -99q-62 0 -62 76q0 45 31 67q19 13 91 36q45 16 193 71q85 32 117 32q105 0 105 -181q0 -282 -145 -841q14 -1 42 -1q53 0 114.5 16.5t69.5 16.5q72 0 72 -88q0 -108 -291 -108 q-415 0 -415 142z" />
<glyph unicode="2" d="M0 82q0 36 44 69q58 39 116 77q206 146 297 274q101 141 101 306q0 193 -146 210q-181 -120 -257 -120q-75 0 -75 67q0 35 63 92q132 118 322 118q266 0 266 -353q0 -383 -452 -684q70 -10 116 -10q96 0 237 62q49 22 97 46q44 20 65 20q63 0 63 -72q0 -84 -146 -146 q-160 -68 -415 -68q-296 0 -296 112z" />
<glyph unicode="3" horiz-adv-x="800" d="M-8 141q0 43 25.5 70.5t65.5 27.5q79 0 83 -79q62 -35 137 -35q132 0 205 63.5t73 178.5q0 152 -131 226q-35 22 -81 28q-37 4 -73 7q-92 12 -92 84q0 75 73 75q28 0 139 -31q109 0 109 137t-148 137q-29 0 -81.5 -16t-72.5 -16q-63 0 -63 75q0 42 64.5 68.5t179.5 26.5 q132 0 211 -75.5t79 -192.5q0 -126 -118 -216q176 -111 176 -318q0 -178 -118.5 -282t-327.5 -104q-314 0 -314 161z" />
<glyph unicode="4" horiz-adv-x="853" d="M31 573q0 75 59 254q35 104 114 219q97 143 167 143q73 0 73 -53q0 -23 -31 -69q-37 -53 -76 -107q-113 -164 -126 -375q93 -50 221 -50h12q108 445 168 537q16 24 54 24q47 0 77 -21t30 -52q0 -23 -51 -153q-69 -172 -111 -318q43 6 91 18q41 10 49 10q76 0 76 -95 q0 -39 -61 -61q-53 -19 -188 -36q-21 -129 -30 -248q-3 -59 -7 -119q-5 -61 -22.5 -86t-62.5 -25q-84 0 -84 115q0 25 42 360q-383 31 -383 188z" />
<glyph unicode="5" horiz-adv-x="861" d="M10 193q0 37 25 61.5t55 24.5q21 0 38 -21q2 -4 34 -56q64 -104 179 -104q132 0 208.5 76.5t76.5 207.5q0 143 -78.5 243.5t-187.5 100.5q-62 0 -131 -28t-85 -28q-66 0 -66 71q0 218 63 395q27 77 148 77q173 0 337 -62q98 -37 98 -86q0 -33 -31 -58t-77 -25 q-41 0 -136 32t-144 32q-2 0 -44 -3q-41 -84 -41 -188q81 22 148 22q175 0 287.5 -132.5t112.5 -345.5q0 -202 -127 -328.5t-327 -126.5q-148 0 -241.5 71.5t-93.5 177.5z" />
<glyph unicode="6" horiz-adv-x="845" d="M73 491q0 362 123 570q118 201 319 201q131 0 216 -99q47 -55 47 -96q0 -33 -33 -58.5t-73 -25.5q-27 0 -46 29q-63 97 -131 97q-100 0 -164 -132q-69 -140 -80 -392q76 87 207 87q147 0 243 -108t96 -272q0 -170 -96.5 -273.5t-256.5 -103.5q-179 0 -275 148t-96 428z M256 327q0 -112 60 -188t146 -76q74 0 117.5 51.5t43.5 141.5q0 118 -60 191t-151 73q-71 0 -113.5 -52t-42.5 -141z" />
<glyph unicode="7" horiz-adv-x="922" d="M12 970q0 88 68 118q131 58 352 58q485 0 485 -145q0 -37 -22 -106q-115 -351 -348 -653q-109 -141 -221 -231q-95 -76 -135 -76q-28 0 -49.5 22.5t-21.5 49.5q0 37 108 148q71 71 209 224q189 232 289 559q-139 51 -298 51q-114 0 -235 -23q2 -11 2 -29 q0 -123 -105 -123q-78 0 -78 156z" />
<glyph unicode="8" horiz-adv-x="922" d="M42 317q0 195 170 284q-119 99 -119 252q0 135 104 226t268 91q172 0 280 -95.5t108 -245.5q0 -158 -160 -234q156 -89 156 -247q0 -161 -115 -262q-118 -106 -312 -106q-170 0 -275 93.5t-105 243.5zM216 326q0 -90 56 -142.5t151 -52.5q113 0 179 55q63 55 63 146 q0 87 -60.5 141.5t-160.5 54.5q-104 0 -166 -56t-62 -146zM269 842q0 -82 56 -135.5t142 -53.5q94 0 150.5 45t56.5 121q0 92 -58.5 149t-152.5 57q-87 0 -140.5 -50.5t-53.5 -132.5z" />
<glyph unicode="9" horiz-adv-x="913" d="M47 780q0 167 112.5 281t282.5 114q186 0 295 -123.5t109 -339.5q0 -452 -446 -770q-105 -75 -179 -75q-80 0 -80 73q0 29 31 55q11 9 82 59q162 112 233 185q105 109 149 257q-95 -82 -231 -82q-124 0 -215 71q-143 113 -143 295zM223 784q0 -92 64 -159.5t147 -67.5 q91 0 161 69.5t70 163.5q0 102 -62.5 167t-165.5 65q-93 0 -153.5 -67.5t-60.5 -170.5z" />
<glyph unicode=":" horiz-adv-x="521" d="M88 792q0 53 36.5 85.5t96.5 32.5q54 0 90.5 -37t36.5 -91q0 -48 -39.5 -84.5t-92.5 -36.5q-55 0 -91.5 36.5t-36.5 94.5zM115 249q0 54 37 89.5t94 35.5q66 0 105 -35.5t39 -96.5q0 -49 -42 -87.5t-97 -38.5q-57 0 -96.5 39t-39.5 94z" />
<glyph unicode=";" horiz-adv-x="521" d="M80 184q0 50 42.5 87t103.5 37q97 0 152.5 -60t55.5 -166q0 -107 -70 -186q-65 -74 -138 -74q-62 0 -62 50q0 23 16 36q3 2 38 22q69 41 69 101q0 32 -13 57q-34 -5 -62 -5q-132 0 -132 101zM110 703q0 53 40 87t106 34q58 0 98 -36t40 -85q0 -52 -42 -87t-108 -35 q-61 0 -97.5 34t-36.5 88z" />
<glyph unicode="&#x3c;" horiz-adv-x="957" d="M174 563q0 61 124 173q98 89 233 179q172 115 216 115q75 0 75 -70q0 -35 -30 -62q-14 -13 -73 -49q-174 -104 -372 -281q124 -120 248 -212q66 -47 133 -93q54 -39 54 -82q0 -70 -73 -70q-56 0 -218 126q-317 245 -317 326z" />
<glyph unicode="=" horiz-adv-x="957" d="M78 722q0 68 97 89q76 16 298 16q256 0 326 -11q103 -16 103 -76q0 -77 -115 -77q-15 0 -126 8t-209 8q-121 0 -225.5 -9.5t-88.5 -9.5q-60 0 -60 62zM94 427q0 75 122 75q284 0 503 -44q130 -26 130 -98q0 -66 -83 -66q-17 0 -180 30.5t-306 30.5q-15 0 -44 -0.5 t-43 -0.5q-99 0 -99 73z" />
<glyph unicode="&#x3e;" horiz-adv-x="957" d="M101 954q0 31 22.5 53.5t55.5 22.5q17 0 42 -8q276 -97 484 -248q127 -91 127 -158q0 -92 -206 -275q-142 -128 -272 -201q-110 -62 -164 -62q-28 0 -48 22t-20 51q0 37 42 65q56 30 111 61q198 110 376 318q-115 98 -263 173q-107 48 -212 97q-75 38 -75 89z" />
<glyph unicode="?" horiz-adv-x="679" d="M28 1038q0 55 77 99q84 49 203 49q154 0 244.5 -77.5t90.5 -206.5q0 -126 -119 -234q-37 -30 -74 -62q-50 -46 -81 -101q-15 -26 -35 -136q-17 -94 -87 -94q-78 0 -78 102q0 85 44.5 174t113.5 143q85 68 110 96q42 50 42 110q0 64 -51 106t-132 42q-55 0 -117 -44 t-85 -44q-27 0 -46.5 23t-19.5 55zM148 88q0 51 34 83.5t86 32.5q51 0 83 -32t32 -82q0 -48 -32.5 -79.5t-86.5 -31.5q-52 0 -84 30.5t-32 78.5z" />
<glyph unicode="@" horiz-adv-x="1740" d="M85 557q0 349 206.5 549t568.5 200q373 0 580.5 -160.5t207.5 -444.5q0 -255 -110 -397q-107 -138 -294 -138q-159 0 -236 121q-86 -106 -212 -106q-129 0 -200 84t-71 242q0 188 100.5 304.5t261.5 116.5q96 0 176 -61q28 47 68 47q67 0 67 -52q0 2 -40 -140.5 t-40 -281.5q0 -77 29 -109.5t101 -32.5q124 0 193.5 99t69.5 284q0 234 -170 365.5t-472 131.5q-307 0 -476.5 -163.5t-169.5 -457.5q0 -288 176.5 -457.5t484.5 -169.5q219 0 375 62q8 3 68 30q32 15 48 15q22 0 37 -17.5t15 -42.5q0 -64 -145 -118q-163 -61 -400 -61 q-380 0 -588.5 199.5t-208.5 559.5zM665 508q0 -214 148 -214q112 0 170 120q6 179 47 337q-50 62 -128 62q-105 0 -170 -83q-67 -85 -67 -222z" />
<glyph unicode="A" horiz-adv-x="1558" d="M-96 110q0 34 56.5 79t112.5 89q96 76 183 166q-146 58 -146 119q0 35 23 60t55 25q26 0 77 -24q90 -41 107 -48q343 450 385 656q12 71 25 142q17 53 80 53q52 0 70 -43q10 -26 17 -78q7 -63 14 -89q81 -329 313 -827q39 1 76 4l34 3q94 0 94 -85q0 -88 -98 -88h-25 q34 -68 115 -208q51 -88 51 -122q0 -84 -80 -84q-56 0 -123 105q-49 77 -161 308q-324 5 -734 151q-326 -341 -445 -341q-30 0 -53 22.5t-23 54.5zM538 512q264 -97 542 -120q-137 296 -238 628q-122 -275 -304 -508z" />
<glyph unicode="B" horiz-adv-x="1215" d="M-108 1222q0 47 83 96q194 113 464 113q249 0 396 -113q143 -113 143 -300q0 -173 -129 -292q137 -43 214 -148t77 -247q0 -222 -195 -369q-161 -122 -382 -122q-110 0 -251 40q-15 -82 -84 -82q-52 0 -72 43q-20 41 -20 136q0 199 54 890l6 96q13 156 28 201 q22 63 84 63q77 0 77 -102v2q-2 0 -30 -308q-32 -358 -41 -765q146 -46 261 -46q170 0 279 95q105 92 105 228q0 266 -367 266q-13 0 -39 -1t-40 -1q-78 0 -78 71q0 52 44 70q25 11 74 15q60 6 83 11q72 18 116.5 83t44.5 156q0 126 -102.5 195.5t-294.5 69.5 q-131 0 -282 -63q-36 -17 -74 -34q-43 -18 -75 -18q-34 0 -55.5 21t-21.5 50z" />
<glyph unicode="C" horiz-adv-x="1465" d="M90 548q0 344 181 561q196 233 521 233q277 0 454 -144q66 -54 66 -100q0 -34 -26 -60t-60 -26q-22 0 -63 29q-184 132 -374 132q-237 0 -378.5 -167.5t-141.5 -455.5q0 -580 505 -580q288 0 412 140q28 36 56 74q27 32 62 32q36 0 60.5 -24.5t24.5 -60.5 q0 -83 -117 -176q-194 -157 -498 -157q-326 0 -505 196t-179 554z" />
<glyph unicode="D" horiz-adv-x="1566" d="M103 1204q0 50 55 77l-2 13q0 2 -0.5 6t-0.5 6q0 73 84 73q70 0 83 -63q177 35 327 35q415 0 640.5 -192t225.5 -544q0 -782 -1012 -782q-87 0 -177 7q-24 -73 -84 -73q-34 0 -57 18.5t-23 45.5v-1q2 0 28 200q28 216 29 450q0 333 -40 638q-76 15 -76 86zM347 1149 q43 -336 43 -667q0 -247 -31 -477q40 -3 111 -3q381 0 566 83q298 135 298 521q0 281 -176 429.5t-510 148.5q-119 0 -301 -35z" />
<glyph unicode="E" horiz-adv-x="1244" d="M33 -73q0 35 23.5 59t56.5 24h78q42 207 42 872q0 28 -3 311q-29 0 -58.5 -1t-30.5 -1q-89 0 -89 78q0 52 47 72q43 18 148 18q441 0 705 -80q176 -53 176 -125q0 -29 -22.5 -53.5t-48.5 -24.5q-16 0 -66 20q-63 27 -107 37q-116 29 -484 53q0 -154 -3 -488 q107 -7 206 -7q69 0 142.5 5t79.5 5q92 0 92 -78q0 -61 -77 -77q-53 -11 -237 -11q-102 0 -209 5q-9 -390 -32 -530h35q341 0 513 51q47 14 133 57q69 35 101 35q31 0 54 -22t23 -51q0 -72 -173 -138q-167 -63 -395 -83q-137 -12 -406 -12q-95 0 -129 7q-85 16 -85 73z" />
<glyph unicode="F" horiz-adv-x="957" d="M-66 1191q0 113 473 113q304 0 519 -38q127 -23 127 -100q0 -76 -104 -76h1q0 1 -187 23q-205 23 -427 25q30 -143 35 -400q36 -2 101 -2q107 0 208 9t94 9q96 0 96 -86q0 -75 -157 -93q-44 -5 -229 -5h-113q-6 -419 -26 -557q-25 -180 -101 -180q-80 0 -80 82v-3 q2 0 20 194q20 220 20 470q0 372 -37 547q-98 -20 -139 -20q-94 0 -94 88z" />
<glyph unicode="G" horiz-adv-x="1451" d="M47 507q0 389 206 606t571 217q191 0 329 -62q128 -56 128 -120q0 -34 -24.5 -60t-53.5 -26q-20 0 -52 17q-58 29 -65 32q-120 50 -259 50q-288 0 -442.5 -167t-154.5 -482q0 -258 107 -398q104 -139 291 -139q174 0 280 133q104 130 154 402q-79 15 -132 15 q-64 0 -140.5 -21.5t-91.5 -21.5q-29 0 -52 26t-23 60q0 55 89 91q96 37 260 37q202 0 344 -65q129 -60 129 -129q0 -33 -26 -59.5t-57 -26.5q-22 0 -61 23q-51 30 -75 40q-13 -117 -13 -232q0 -134 19 -247q18 -101 20 -101v2q0 -32 -24.5 -53.5t-57.5 -21.5 q-98 0 -117 259q-140 -275 -440 -275q-258 0 -411 184q-155 187 -155 513z" />
<glyph unicode="H" horiz-adv-x="1496" d="M111 630q0 59 63 75q14 238 38 541q18 108 102 108q83 0 83 -102q0 -8 -13 -161q-16 -191 -27 -385q95 -3 299 -3q259 0 498 14q7 446 16 549q10 121 94 121q87 0 87 -115v3q-1 1 -11 -225q-10 -250 -10 -528q0 -208 2 -392q2 -163 3 -163v3q0 -126 -91 -126 q-51 0 -71 35q-14 25 -17 84t-3 197v376q-103 -1 -284 -1q-335 0 -521 8q-9 -200 -9 -381q0 -55 1 -117.5t1 -69.5q0 -86 -19 -121q-20 -38 -73 -38q-51 0 -71 36q-20 34 -20 115q0 166 11 591q-58 28 -58 72z" />
<glyph unicode="I" horiz-adv-x="691" d="M0 1229q0 123 259 123q172 0 272 -47q95 -45 95 -119q0 -67 -53 -67q-13 0 -64 17q-66 21 -117 32q88 -308 88 -651q0 -220 -40 -567q33 9 97 36q47 19 69 19q30 0 50.5 -21.5t20.5 -53.5q0 -70 -81.5 -111.5t-231.5 -41.5q-149 0 -230.5 32t-81.5 86q0 90 84 90 q20 0 58 -12q59 -18 75 -21q35 340 35 565q0 365 -95 667q-37 -5 -86 -23q-43 -15 -57 -15q-27 0 -46.5 23.5t-19.5 59.5z" />
<glyph unicode="J" horiz-adv-x="1071" d="M-3 292q0 157 93 157q48 0 66 -32t18 -107q0 -11 -0.5 -26t-0.5 -20q0 -266 234 -266q184 0 282 153.5t98 443.5q0 284 -75 583q-100 25 -182 25q-67 0 -154.5 -21t-111.5 -21q-81 0 -81 91q0 49 99 82q106 36 282 36q235 0 444 -58q94 -25 94 -86q0 -44 -25.5 -71 t-64.5 -27q-4 0 -36 9q-40 12 -79 19q69 -316 69 -533q0 -389 -146.5 -590.5t-425.5 -201.5q-189 0 -293 121.5t-104 339.5z" />
<glyph unicode="K" horiz-adv-x="1422" d="M98 -169q0 25 12 69q20 69 23 80q73 325 73 713q0 194 -18.5 391t-18.5 195q0 96 87 96q89 0 110 -173q9 -77 16 -553q402 270 645 568q88 108 91 111q41 42 83 42q71 0 71 -71q0 -177 -576 -634q227 -132 406 -329q148 -163 237 -309q73 -119 73 -163q0 -35 -25 -59 t-62 -24q-43 0 -69 30.5t-94 140.5q-71 113 -130 186q-238 294 -496 415q-100 -68 -160 -103q-30 -368 -73 -523q-48 -173 -134 -173q-31 0 -51 22.5t-20 54.5z" />
<glyph unicode="L" horiz-adv-x="1263" d="M-5 -43q0 66 90 66q43 0 111 -13q-25 280 -25 475q0 325 43 683l-41 -4h-7q-79 0 -79 77q0 57 49 80q45 21 150 21q168 0 264 -42q89 -39 89 -101q0 -34 -24 -59.5t-55 -25.5q-20 0 -72 25q-56 26 -96 31q-53 -348 -53 -683q0 -149 33 -497q199 -21 317 -21q212 0 336 74 q36 45 55 176q11 86 22 108q18 37 68 37q85 0 85 -120q0 -235 -142 -349v-3q-130 -80 -391 -80q-384 0 -606 47q-67 14 -92 33q-29 22 -29 65z" />
<glyph unicode="M" horiz-adv-x="1855" d="M171 207q0 575 83 949q29 128 59 178q32 55 84 55q55 0 127 -77q148 -159 230 -274q129 -184 214 -408q153 373 324 601q150 202 240 202q37 0 57 -32q16 -27 34 -102q64 -273 64 -867q0 -327 -29 -535q-18 -121 -95 -121q-85 0 -85 93q0 4 10 94q12 107 20 215 q10 162 10 339q0 300 -51 653q-206 -204 -362 -635q-31 -90 -63 -180q-30 -66 -85 -66q-52 0 -77 52q-10 19 -50 152q-104 351 -393 663q-94 -306 -94 -836q0 -76 6 -188t6 -149q0 -129 -86 -129q-67 0 -85 81q-13 60 -13 272z" />
<glyph unicode="N" horiz-adv-x="1523" d="M111 47q0 457 115 1026q32 157 65 221q38 74 101 74q40 0 66 -47q2 -2 60 -135q290 -655 633 -1068v63q0 530 80 990q19 110 41 156q26 50 68 50q82 0 82 -99q0 -34 -24 -176q-29 -171 -42 -303q-35 -355 -35 -583q0 -63 6.5 -156.5t6.5 -124.5q0 -114 -93 -114 q-59 0 -125 60q-55 51 -146 177q-316 435 -570 978q-88 -319 -104 -880q-7 -241 -10 -259q-13 -81 -80 -81t-87 89q-8 36 -8 142z" />
<glyph unicode="O" horiz-adv-x="1552" d="M70 535q0 360 165 583q179 239 519 239q342 0 535 -213t193 -599q0 -360 -195.5 -561.5t-535.5 -201.5q-302 0 -493 208q-188 203 -188 545zM251 550q0 -273 143.5 -436.5t373.5 -163.5q244 0 388 155q146 159 146 435q0 313 -141.5 479.5t-403.5 166.5 q-248 0 -377 -162.5t-129 -473.5z" />
<glyph unicode="P" horiz-adv-x="1220" d="M-47 1121q0 38 72 106q203 195 539 195q283 0 448.5 -131.5t165.5 -353.5q0 -231 -123.5 -371.5t-320.5 -140.5q-119 0 -200 43q-76 40 -76 92v4q0 36 21.5 61.5t51.5 25.5q15 0 82.5 -29t122.5 -29q116 0 191.5 93t75.5 236q0 148 -114.5 239t-302.5 91q-54 0 -154 -13 q15 -244 15 -375q0 -286 -12 -510q-14 -267 -64 -467q-18 -71 -77 -71q-90 0 -90 121q0 -13 50 389q17 138 17 360q0 297 -13 503q-60 -30 -132 -100q-55 -53 -86 -53q-35 0 -61 25.5t-26 59.5z" />
<glyph unicode="Q" horiz-adv-x="1521" d="M56 603q0 345 196.5 545.5t525.5 200.5q238 0 395 -123q242 -191 242 -538q0 -501 -523 -693q283 -123 427 -123q124 0 201 40v17q52 66 90 66q14 0 28 -9q54 -32 54 -96q0 -159 -362 -186l-1 2h-6q-111 0 -258 47q-75 23 -291 109q-74 30 -146 30q-120 0 -231.5 -21 t-107.5 -21q-82 0 -82 79q0 58 73 86q36 15 217.5 44t327.5 84q413 153 413 555q0 186 -115 322q-135 161 -345 161q-261 0 -404.5 -145.5t-143.5 -412.5q0 -195 113 -275q29 -21 70 -29q34 -5 67 -11q86 -17 86 -84q0 -88 -126 -88q-72 0 -149.5 36.5t-130.5 96.5 q-104 121 -104 334z" />
<glyph unicode="R" horiz-adv-x="1274" d="M-183 1222q0 55 45 75q27 11 67 13q35 2 71 2q26 3 219 34q144 24 248 24q631 0 631 -501q0 -159 -87.5 -294t-244.5 -211q123 -94 242 -219q141 -148 145 -150q43 -38 142 -38q48 0 61 13l54 58q28 26 54 26q27 0 46.5 -24t19.5 -60q0 -64 -68 -123v2q-65 -56 -178 -56 q-146 0 -217 51q-21 15 -53 51q-51 59 -59 67q-269 284 -370 334q-44 16 -87 33.5t-43 64.5q0 79 135 90q145 12 236 117t91 257q0 346 -440 346h-14q-109 -448 -109 -965q0 -89 5 -188t5 -107q0 -118 -82 -118q-66 0 -86 80q-17 65 -17 265q0 614 107 1016 q-314 -52 -347 -52q-122 0 -122 87z" />
<glyph unicode="S" horiz-adv-x="1086" d="M68 794q0 248 155.5 403t401.5 155q141 0 267 -78q23 89 90 89q81 0 81 -113q0 -25 -9 -80.5t-9 -83.5v-26q0 -93 -12 -123q-17 -44 -73 -44q-61 0 -82 79q-11 39 -13 130q-116 82 -244 82q-163 0 -268.5 -105.5t-105.5 -269.5q0 -140 67 -203q47 -43 204 -98 q142 -48 194 -73q89 -41 135 -98q70 -83 70 -221q0 -142 -108 -225.5t-296 -83.5q-141 0 -226 70l-1 -173q-1 -86 -84 -86q-86 0 -86 114v124q0 245 15 322q19 104 85 104q52 0 70 -41q10 -26 17 -73q9 -62 14 -81q27 -112 172 -112q251 0 251 150q0 74 -54 120 q-44 38 -156 79l-154 55q-169 62 -237 151q-71 93 -71 264z" />
<glyph unicode="T" horiz-adv-x="1274" d="M-52 970q0 171 108 223q183 86 564 86q720 0 720 -176q0 -33 -25 -59.5t-54 -26.5q-21 0 -51 14q-40 20 -47 22q-112 36 -430 55q10 -392 10 -577q0 -358 -17 -611q-6 -82 -26 -115q-21 -36 -70 -36q-82 0 -82 109q0 5 13.5 229t13.5 443q0 121 -9 559q-313 -3 -443 -75 q-15 -170 -103 -170q-72 0 -72 106z" />
<glyph unicode="U" horiz-adv-x="1493" d="M133 310q0 456 255 861l-43 -5q-3 0 -8 -1t-8 -1q-70 0 -70 70q0 129 279 129q104 0 181 -51q71 -46 71 -99q0 -31 -25 -57t-54 -26q-23 0 -59 23q-44 29 -69 36q-282 -416 -282 -877q0 -392 335 -392q545 0 545 809q0 281 -35 474q-35 -14 -73 -14q-30 0 -52.5 25.5 t-22.5 61.5q0 48 70 81q73 34 187 34q89 0 142 -35.5t53 -89.5q0 -75 -71 -75q-17 0 -61 15q31 -258 31 -455q0 -487 -182.5 -742.5t-522.5 -255.5q-247 0 -379 143t-132 414z" />
<glyph unicode="V" horiz-adv-x="1262" d="M-110 1239q0 42 62.5 69t170.5 27q32 0 85 -6t78 -6q21 0 57 2t51 2q118 0 118 -86q0 -87 -129 -87q-42 0 -141 10q155 -325 346 -1136q283 547 424 1143q-74 -5 -97 -5q-98 0 -98 73q0 83 135 103q44 7 209 7q226 0 226 -103q0 -35 -22 -60t-53 -25q-16 0 -53.5 10 t-60.5 10h-5q-171 -638 -397 -1088q-90 -180 -121 -224q-52 -76 -107 -76q-71 0 -99 52q-13 25 -44 152q-124 499 -201 744q-95 303 -181 429q-51 -6 -68 -6h-5q-33 0 -56.5 22.5t-23.5 52.5z" />
<glyph unicode="W" horiz-adv-x="1659" d="M-70 1337q0 103 272 103q127 0 203.5 -32t76.5 -79q0 -91 -82 -91q-20 0 -62 12q-46 13 -74 16l-3 -213q0 -633 211 -1032q131 181 297 726q30 97 60 239q24 117 39 150q23 51 67 51q62 0 81 -58q12 -42 12 -174q0 -21 -0.5 -50t-0.5 -36q0 -517 169 -902 q178 455 226 1312q-13 -1 -43 -7q-26 -6 -40 -6q-84 0 -84 86q0 100 228 100q116 0 192 -41q71 -38 71 -90q0 -31 -24 -56.5t-53 -25.5q-15 0 -32 5.5t-27 9.5q-1 0 -20 8q-56 -961 -263 -1403q-55 -115 -129 -115q-211 0 -314 831q-135 -402 -223 -566q-98 -185 -194 -185 q-67 0 -124 80q-56 76 -120 251q-129 348 -129 1046v61q-17 -1 -45 -7q-23 -5 -34 -5q-85 0 -85 87z" />
<glyph unicode="X" horiz-adv-x="1282" d="M-33 1316q0 30 22.5 50.5t55.5 20.5q62 0 230 -147q182 -160 439 -453q301 213 372 485q32 120 32 121q19 45 69 45q39 0 63 -23t24 -58v-15q0 -170 -151 -390q-118 -172 -309 -294q204 -278 317 -514q95 -196 95 -287q0 -90 -88 -90q-43 0 -64 35q-12 19 -40 105 q-103 321 -386 683q-226 -166 -406 -487q-60 -107 -75 -197q-10 -57 -26 -79q-19 -23 -63 -23q-83 0 -83 93q0 157 217 472q144 209 328 352q-208 231 -452 447q-71 64 -88 82q-33 37 -33 66z" />
<glyph unicode="Y" horiz-adv-x="1182" d="M-17 1300q0 92 85 92q53 0 70 -36q12 -26 29 -99q21 -81 39 -127q110 -292 322 -515q294 239 512 619q32 58 65 116q29 42 66 42q38 0 64.5 -26.5t26.5 -63.5q0 -64 -122 -247q-230 -346 -527 -571l2 -2v-106q0 -74 0.5 -180t0.5 -136q0 -170 -15 -227q-20 -74 -84 -74 q-78 0 -78 133q0 7 3 120t3 219v218q-135 125 -290 398q-172 305 -172 453z" />
<glyph unicode="Z" horiz-adv-x="1587" d="M8 1182q0 56 108 85q245 68 483 68q311 0 501 -74q176 -68 176 -168q0 -110 -242 -370q-259 -278 -738 -663q154 -88 381 -88q206 0 394 67q184 66 306 179l99 99q43 42 74 42q32 0 58.5 -25.5t26.5 -56.5q0 -65 -125 -172q-167 -143 -385 -221.5t-448 -78.5 q-290 0 -482 113q-115 68 -115 136q0 42 75 110q98 82 197 165q545 457 733 738q-172 91 -505 91q-165 0 -328 -31t-164 -31q-80 0 -80 86z" />
<glyph unicode="[" horiz-adv-x="783" d="M156 372q0 347 39 617q29 207 52 233q37 42 293 42q90 0 120 -7q71 -16 71 -73q0 -73 -165 -73h-190q-62 -369 -62 -768q0 -289 36 -399q65 -17 143 -17q26 0 64.5 2.5t50.5 2.5q98 0 98 -78q0 -52 -52 -68q-27 -9 -96 -9q-306 0 -346 67q-18 30 -35 158q-21 159 -21 370 z" />
<glyph unicode="\" horiz-adv-x="696" d="M30 1294q0 71 68 71q52 0 92 -70q14 -23 96 -209q187 -426 289 -729q90 -265 90 -360q0 -93 -80 -93q-48 0 -70 53q-2 5 -70 255q-34 128 -130 380q-79 206 -203 484q-82 185 -82 218z" />
<glyph unicode="]" horiz-adv-x="748" d="M61 -54q0 79 59 79q23 0 98 -33q89 -36 158 -50q84 429 84 815q0 173 -21 361q-198 -18 -227 -18q-114 0 -114 71q0 38 25 53q22 14 79 17q300 21 283 21q90 0 114 -90q17 -64 17 -308v-23q0 -600 -85 -951q-28 -114 -120 -114q-86 0 -255 86q-95 50 -95 84z" />
<glyph unicode="^" horiz-adv-x="1044" d="M123 503q0 49 171 219q186 187 249 187q60 0 270 -225q109 -117 109 -160q0 -17 -19.5 -34t-40.5 -17q-22 0 -103 83q-122 125 -223 206q-108 -74 -241 -205q-94 -94 -128 -94q-17 0 -30.5 13t-13.5 27z" />
<glyph unicode="_" d="M-75 -266q0 42 46 56q22 6 81 6q36 0 194.5 -6t281.5 -6q87 0 189 5t119 5q83 0 83 -60q0 -56 -106 -71q-73 -10 -341 -10q-385 0 -498 27q-49 12 -49 54z" />
<glyph unicode="`" d="M178 1490q0 22 19.5 41t43.5 19q29 0 73 -34l226 -174q46 -36 46 -64q0 -47 -45 -47q-20 0 -62 28l-237 155q-64 42 -64 76z" />
<glyph unicode="a" horiz-adv-x="957" d="M75 310q0 169 99.5 268t264.5 99q143 0 242 -96q-16 336 -249 336q-52 0 -111 -31t-77 -31q-29 0 -52 24t-23 54q0 51 74 95q79 46 189 46q407 0 407 -559q0 -233 -68 -487q-34 -127 -101 -127q-69 0 -69 78q0 18 2 26q-87 -47 -180 -47q-164 0 -256 93t-92 259zM241 317 q0 -216 221 -216q96 0 150 56.5t54 157.5q0 216 -203 216q-222 0 -222 -214z" />
<glyph unicode="b" horiz-adv-x="1059" d="M85 1307q0 27 24.5 47.5t56.5 20.5q69 0 94 -104q18 -73 32 -333q136 100 289 100q196 0 310 -131t114 -364q0 -262 -132.5 -411t-362.5 -149q-132 0 -224 82q-1 -73 -12 -102q-19 -53 -76 -53q-80 0 -80 100q0 -1 4 90q6 107 8 225q4 171 4 364q0 289 -18 430 q-6 52 -20 119q-11 56 -11 69zM294 301q70 -160 228 -160q138 0 226 109t88 288q0 163 -75 257.5t-201 94.5q-180 0 -264 -138v-131q0 -92 -1 -199t-1 -119v-2z" />
<glyph unicode="c" horiz-adv-x="1048" d="M54 533q0 309 137.5 481t378.5 172q178 0 292 -80q108 -75 108 -180q0 -85 -80 -85q-37 0 -54 26q-16 37 -47 93q-61 68 -219 68q-166 0 -256.5 -124.5t-90.5 -356.5q0 -368 292 -368q169 0 289 120q1 1 53 77q30 46 69 46q31 0 55.5 -23.5t24.5 -51.5q0 -89 -179 -227 q-127 -97 -332 -97q-204 0 -322 134q-119 137 -119 376z" />
<glyph unicode="d" horiz-adv-x="1122" d="M50 455q0 272 150 439.5t393 167.5q113 0 234 -52q6 235 16 282q19 87 94 87q71 0 71 -93q0 5 -10 -127q-11 -154 -19 -328q-9 -250 -9 -532q0 -58 1 -118.5t1 -64.5q0 -126 -80 -126q-88 0 -88 143q0 33 2 51q-161 -158 -372 -158q-177 0 -280.5 114.5t-103.5 314.5z M221 470q0 -140 67.5 -218t186.5 -78q150 0 228 100q22 33 43 67q25 36 62 42q0 239 11 461q-112 70 -224 70q-173 0 -273.5 -119.5t-100.5 -324.5z" />
<glyph unicode="e" horiz-adv-x="973" d="M54 508q0 243 129 418q147 200 364 200q169 0 278.5 -113t109.5 -287q0 -88 -61 -131q-27 -19 -173 -48q-193 -40 -329 -40q-62 0 -149 8q0 -320 244 -320q67 0 121 38q27 19 98 91q25 26 54 26q35 0 61 -26.5t26 -65.5q0 -33 -25 -60q-146 -160 -342 -160 q-406 0 -406 470zM239 666q60 -6 128 -6q165 0 399 56q-5 118 -61.5 187t-141.5 69q-111 0 -195 -80q-87 -79 -129 -226z" />
<glyph unicode="f" horiz-adv-x="853" d="M5 535q0 73 78 73h4l99 -4q4 113 6 226q5 106 22 160q89 286 372 286q158 0 261 -50q93 -46 93 -107q0 -29 -23 -53.5t-52 -24.5q-7 0 -92.5 39t-177.5 39q-144 0 -201 -118q-28 -56 -34 -168l-6 -238q231 -19 305 -37q98 -26 98 -85q0 -33 -17.5 -54.5t-39.5 -21.5 q-14 0 -118 18q-120 20 -230 29q-13 -383 -26 -472q-23 -153 -100 -153q-82 0 -82 94l18 175q19 181 22 364q-103 2 -136 15q-43 16 -43 68z" />
<glyph unicode="g" horiz-adv-x="917" d="M-26 -3q0 29 24.5 50t57.5 21q22 0 44 -20q22 -22 43 -45q41 -41 158 -41q149 0 233 39q81 37 81 104q0 96 -223 96q-53 0 -139 -10t-120 -10q-83 0 -83 58q0 81 159 274q-131 93 -131 267q0 162 115.5 276.5t283.5 114.5q36 0 81 -8q28 41 182 41q190 0 190 -74 q0 -67 -75 -67q-10 0 -43 4q-43 4 -71 6q103 -113 103 -269q0 -151 -106.5 -248.5t-277.5 -97.5q-38 0 -123 9q-72 -55 -114 -130q165 20 219 20q348 0 348 -241q0 -145 -131 -228t-367 -83q-148 0 -236 57q-82 54 -82 135zM246 782q0 -178 212 -178q107 0 166 56.5 t59 159.5q0 95 -56.5 151.5t-149.5 56.5q-102 0 -166.5 -68t-64.5 -178z" />
<glyph unicode="h" horiz-adv-x="1096" d="M133 550q0 288 63 660q15 80 28 105q19 36 63 36q33 0 55 -24t22 -61q0 1 -44 -286q113 105 273 105q384 0 384 -600q0 -243 -47 -389q-44 -139 -111 -139q-39 0 -65 23t-26 53l40 149q40 150 40 303q0 231 -53 335q-55 108 -177 108q-65 0 -132 -31.5t-103 -76.5 q-45 -57 -45 -172v-55q0 -216 16 -420q15 -191 17 -191v1q0 -84 -79 -84q-45 0 -63 28q-16 24 -27 96q-29 198 -29 527z" />
<glyph unicode="i" horiz-adv-x="483" d="M101 106q0 -4 14 59q16 71 26 162q14 129 14 289q0 70 -2 147.5t-2 83.5q0 115 20 160q20 50 76 50q79 0 79 -92q0 -513 -37 -758q-14 -98 -32 -132q-23 -45 -74 -45q-34 0 -58 22.5t-24 53.5zM131 1281q0 51 35.5 86.5t87.5 35.5q49 0 78.5 -31.5t29.5 -82.5 q0 -121 -118 -121q-48 0 -80.5 33t-32.5 80z" />
<glyph unicode="j" horiz-adv-x="504" d="M-190 -23q0 36 23.5 60t58.5 24q41 0 64.5 -43.5t46.5 -43.5q71 0 127 145q61 159 61 399q0 105 -17.5 243.5t-17.5 170.5q0 88 75 88t104 -109q27 -100 27 -348q0 -355 -98 -555q-94 -191 -254 -191q-81 0 -140.5 50.5t-59.5 109.5zM61 1295q0 56 39 93t95 37 q120 0 120 -116q0 -53 -37 -89t-90 -36q-46 0 -86.5 35.5t-40.5 75.5z" />
<glyph unicode="k" horiz-adv-x="991" d="M129 808q0 226 41 354q40 122 107 122q33 0 59 -23.5t26 -54.5q0 2 -19 -54q-21 -66 -34 -144q-18 -114 -18 -251q0 -77 10.5 -233.5t10.5 -236.5q0 -113 -20 -160q-23 -52 -80 -52q-46 0 -61 35q-8 20 -8 74q0 43 0.5 106.5t0.5 85.5q0 87 -7.5 231t-7.5 201zM314 797 q0 39 53 67l150 68q72 34 231 125q96 56 128 56q81 0 81 -79q0 -52 -110 -110q-162 -77 -323 -153q200 -204 312 -363q99 -143 99 -207q0 -37 -24 -63.5t-56 -26.5q-34 0 -59 40q-62 101 -181 281q-85 119 -225 245q-49 45 -51 46q-25 32 -25 74z" />
<glyph unicode="l" horiz-adv-x="466" d="M146 630q0 429 12 528q14 108 86 108q85 0 85 -103q0 -26 -9.5 -203t-9.5 -327q0 -131 13.5 -338.5t13.5 -284.5q0 -58 -7 -79q-15 -37 -64 -37q-81 0 -95 131q-25 221 -25 605z" />
<glyph unicode="m" horiz-adv-x="1418" d="M120 275q0 365 59 697q20 108 39 144q23 43 74 43q80 0 80 -85l-38 -192q73 103 209 103q109 0 171 -90q108 178 304 178q288 0 288 -481q0 -652 -155 -652q-60 0 -60 75q0 1 29 194.5t29 385.5q0 320 -151 320q-133 0 -174 -161q-32 -124 -32 -488q0 -56 8.5 -123.5 t8.5 -79.5q0 -84 -80 -84q-96 0 -96 307q0 129 10 269.5t10 150.5q0 126 -133 126q-124 0 -180 -111q-54 -108 -54 -342q0 -150 8 -280q7 -112 9 -112v3q0 -32 -23.5 -53.5t-60.5 -21.5q-75 0 -93 145q-6 41 -6 215z" />
<glyph unicode="n" horiz-adv-x="1039" d="M123 869q0 257 100 257q32 0 55 -20t23 -46q0 -19 -10.5 -70.5t-10.5 -87.5v-20q126 171 306 171q166 0 258.5 -122.5t92.5 -352.5q0 -202 -67 -402q-40 -124 -101 -124q-32 0 -55 20t-23 48q0 8 41 155t41 293q0 330 -207 330q-118 0 -193 -87q-77 -90 -77 -238 q0 -83 23.5 -230t23.5 -210q0 -147 -84 -147q-42 0 -58 19q-13 15 -22 60q-1 52 -21 304q-35 352 -35 500z" />
<glyph unicode="o" horiz-adv-x="1068" d="M50 593q0 259 139 401q136 141 377 141q202 0 327 -142t125 -375q0 -250 -146 -398.5t-390 -148.5q-202 0 -317 138.5t-115 383.5zM219 595q0 -178 70 -273.5t200 -95.5q168 0 264 103t96 287q0 171 -83 267.5t-226 96.5q-321 0 -321 -385z" />
<glyph unicode="p" horiz-adv-x="1031" d="M71 -118q0 -5 14 108q17 132 26 286q14 221 14 478q0 51 -1.5 117t-1.5 79q0 113 79 113q82 0 85 -78l1 -52q102 99 265 99q193 0 309 -129q119 -132 119 -355q0 -217 -129.5 -347t-347.5 -130q-121 0 -237 54q-20 -199 -32 -245q-22 -75 -78 -75q-35 0 -60 22.5 t-25 54.5zM280 277q110 -53 223 -53q147 0 227.5 84.5t80.5 239.5q0 156 -72.5 242t-200.5 86q-201 0 -247 -127v-84q0 -197 -11 -388z" />
<glyph unicode="q" horiz-adv-x="1114" d="M60 472q0 273 146 443q160 187 410 187q140 0 243 -52q96 -50 96 -110q0 -29 -20 -49.5t-48 -20.5q-11 0 -98.5 37.5t-165.5 37.5q-167 0 -275 -125q-113 -129 -113 -335q0 -278 263 -278q183 0 264 188q41 94 65 201q25 112 26 116q28 72 84 72q80 0 80 -91 q0 -29 -19 -89q-25 -80 -32 -113q-40 -193 -40 -456q0 -119 22 -197q18 -66 21 -66q1 0 1 2q0 -31 -26.5 -55.5t-59.5 -24.5q-123 0 -123 341q0 86 5 156q-102 -139 -291 -139q-196 0 -305.5 109.5t-109.5 310.5z" />
<glyph unicode="r" horiz-adv-x="777" d="M70 963q0 27 26 51t57 24q90 0 150 -221q88 170 257 170q85 0 138 -39.5t53 -100.5q0 -32 -20 -54t-47 -22q-20 0 -60 29.5t-72 29.5q-81 0 -131 -71t-50 -191v-112q0 -186 -39 -295q-37 -103 -95 -103q-77 0 -77 76q0 16 23.5 113t23.5 183q0 238 -68 381q-1 4 -46 86 q-23 41 -23 66z" />
<glyph unicode="s" horiz-adv-x="792" d="M28 219q0 105 90 105q76 0 78 -117q62 -73 138 -73q64 0 104.5 39t40.5 96q0 53 -50 100q-1 2 -125 99q-171 136 -171 319q0 149 91 240.5t239 91.5q122 0 209 -63q82 -61 82 -135q0 -85 -86 -85q-30 0 -47 21q-12 19 -24 40q-53 68 -141 68q-150 0 -150 -171 q0 -60 27 -102q23 -37 83 -83q134 -102 167 -141q70 -80 70 -184q0 -136 -88.5 -221.5t-230.5 -85.5q-135 0 -222 71q-84 68 -84 171z" />
<glyph unicode="t" horiz-adv-x="818" d="M-26 802q0 96 313 124q65 205 158 205q29 0 49.5 -20.5t20.5 -50.5q0 -22 -12.5 -55.5t-25.5 -67.5q329 -11 329 -145q0 -30 -19 -50.5t-44 -20.5q-13 0 -97.5 33t-165.5 33q-25 0 -53 -3q-32 -139 -32 -254q0 -149 50.5 -229t139.5 -80q27 0 71.5 17.5t64.5 17.5 q68 0 68 -80q0 -52 -56 -84t-153 -32q-361 0 -361 480q0 101 25 222q-24 -3 -103 -19q-52 -10 -76 -10q-91 0 -91 69z" />
<glyph unicode="u" horiz-adv-x="1122" d="M133 538q0 278 36 484q22 127 108 127q31 0 54 -23t23 -53q0 -27 -25 -211t-25 -342q0 -364 201 -364q130 0 206 101t76 284v51q0 284 15 365q20 116 95 116q71 0 71 -100q0 -18 -7 -129t-7 -203q0 -217 32 -400q28 -161 32 -161v3q0 -41 -24.5 -69t-60.5 -28 q-67 0 -113 207q-143 -196 -348 -196q-339 0 -339 541z" />
<glyph unicode="v" horiz-adv-x="929" d="M-23 1116q0 77 77 77q85 0 189 -224q99 -213 230 -670q142 279 218 714q20 115 26 131q17 45 67 45q85 0 85 -122q0 -70 -37 -218q-40 -161 -60 -226q-60 -188 -157 -386q-108 -220 -185 -220q-48 0 -75 95q-35 132 -69 264q-120 381 -256 629q-18 29 -35.5 59t-17.5 52z " />
<glyph unicode="w" horiz-adv-x="1377" d="M70 721q0 423 125 423q33 0 58.5 -25t25.5 -59q0 6 -18.5 -110.5t-18.5 -243.5q0 -209 68 -341q63 -123 152 -123q62 0 106.5 70t44.5 183q0 60 -11.5 164.5t-11.5 148.5q0 114 94 114q96 0 96 -123q0 -19 -1 -65t-1 -71q0 -241 11 -305q33 -192 163 -192q85 0 135.5 88 t50.5 248q0 181 -38 362.5t-38 188.5q0 68 71 68q81 0 128 -145q48 -152 48 -424q0 -265 -94 -410q-91 -140 -252 -140q-197 0 -282 202q-101 -156 -223 -156q-162 0 -272 177q-116 188 -116 496z" />
<glyph unicode="x" horiz-adv-x="1018" d="M5 1023q0 38 25.5 64.5t59.5 26.5q49 0 81 -37q22 -26 59 -105q68 -148 250 -324q137 153 209 297l52 118q26 48 73 48q39 0 63.5 -24t24.5 -62q0 -149 -296 -494q78 -68 295 -223q114 -82 114 -130q0 -36 -24 -63t-53 -27q-54 0 -440 317q-121 -122 -241 -245 q-91 -89 -128 -89q-36 0 -63.5 27t-27.5 62q0 43 98 131q165 149 238 231q-242 240 -320 430q-49 28 -49 71z" />
<glyph unicode="y" horiz-adv-x="772" d="M25 1062q0 76 73 76q46 0 92 -80l82 -178q73 -156 168 -290q63 162 101 338q40 183 40 186q25 70 77 70q78 0 78 -103q0 -107 -87 -370q-79 -243 -287 -617l-84 -168q-37 -65 -87 -65q-29 0 -53.5 25.5t-24.5 55.5q0 55 75 185q172 298 178 308q-167 225 -264 418 q-77 154 -77 209z" />
<glyph unicode="z" horiz-adv-x="898" d="M-3 191q0 63 125 234q280 381 517 578q-235 40 -409 40h-72q-128 0 -128 80q0 83 141 83q231 0 468 -42q251 -44 251 -142q0 -30 -28 -53q-38 -25 -75 -52q-241 -166 -585 -642q206 -109 446 -109q63 0 131 11t74 11q92 0 92 -80q0 -103 -297 -103q-243 0 -523 133 q-23 -32 -54 -32q-30 0 -52 25t-22 60z" />
<glyph unicode="{" horiz-adv-x="835" d="M43 566q0 51 42 66l94 16q102 18 122 123q9 46 9 122v51q0 133 24 207q78 235 291 235q67 0 110 -29q41 -26 41 -63q0 -72 -78 -72q-10 0 -37 6t-45 6q-112 0 -141 -141q-11 -54 -13 -171q-3 -137 -7 -178q-10 -78 -45.5 -121.5t-120.5 -82.5q116 -110 116 -293 q0 -36 -4 -89.5t-4 -70.5q0 -112 64 -173.5t180 -61.5q20 0 46 3.5t30 3.5q63 0 63 -68q0 -90 -148 -90q-168 0 -279 99.5t-111 302.5q0 18 1 53.5t1 54.5q0 164 -84 256q-11 12 -42 22q-75 25 -75 77z" />
<glyph unicode="|" d="M339 902q0 85 13 460q3 111 76 111q50 0 68 -34q12 -24 12 -80q0 -12 -6.5 -171.5t-6.5 -308.5q0 -223 10 -536.5t10 -403.5q0 -24 -1 -73.5t-1 -74.5v-47q0 -88 -6 -115q-16 -66 -75 -66q-77 0 -77 103q0 4 2.5 68.5t2.5 124.5q0 207 -10.5 555t-10.5 488z" />
<glyph unicode="}" horiz-adv-x="913" d="M25 -188q0 77 78 77q15 0 60 -16t79 -16q101 0 148 78q43 72 57 241q9 116 18 234q19 108 99 163q-86 53 -126 150q-36 87 -46 243q-2 46 -4 91q-4 53 -21 91q-39 84 -125 84q-28 0 -60.5 -8t-40.5 -8q-30 0 -50.5 19.5t-20.5 47.5q0 101 172 101q180 0 260 -140 q39 -68 41 -163q2 -74 3 -147q4 -76 22 -126q30 -86 88 -124q32 -21 75 -26q33 -3 66 -5q79 -9 79 -68q0 -78 -112 -78q-26 0 -40 1q-91 -28 -108 -113q-5 -77 -24 -277q-24 -217 -104 -309q-83 -96 -258 -96q-205 0 -205 99z" />
<glyph unicode="~" horiz-adv-x="1044" d="M26 541q0 109 85.5 186t212.5 77q114 0 242 -101l57 -45q115 -90 178 -90t86 83q15 49 21 60q14 23 44 23q63 0 63 -76q0 -88 -66 -152t-157 -64q-100 0 -244 111l-63 50q-96 74 -163 74q-72 0 -121 -45q-12 -11 -51 -120q-12 -33 -20 -43q-13 -13 -42 -13q-62 0 -62 85z " />
<glyph unicode="&#xa2;" horiz-adv-x="774" d="M43 543q0 170 80 280.5t224 139.5q34 201 48 246q27 75 84 75q74 0 74 -74q0 -19 -17 -92q-22 -90 -31 -155q151 -40 151 -167q0 -74 -75 -74q-37 0 -63 27q-18 23 -38 47q-23 24 -64 24q-82 0 -139 -71q-59 -73 -59 -186q0 -101 51.5 -160.5t137.5 -59.5 q66 0 149.5 44.5t104.5 44.5q28 0 47.5 -20t19.5 -50q0 -49 -75 -93q-81 -47 -218 -67q1 -100 6 -194q4 -88 4 -84q0 -97 -71 -97q-72 0 -92 131q-7 45 -7 183v66q-232 86 -232 336z" />
<glyph unicode="&#xa3;" horiz-adv-x="905" d="M-20 643q0 65 88 86q40 10 139 11q70 464 394 464q132 0 215 -62q81 -61 81 -152q0 -106 -75 -106q-45 0 -61 36q-16 41 -32 83q-29 57 -126 57q-184 0 -231 -338q118 -14 235 -29q77 -14 77 -65q0 -71 -87 -71q-129 0 -240 29q-2 -26 -2 -79q0 -159 37 -314 q492 -28 492 -137q0 -66 -88 -66q11 0 -204 30q-225 32 -476 38q-59 1 -83 12q-28 12 -28 48q0 78 176 78h40q-28 191 -28 349v54h-10q-45 0 -92.5 -9.5t-50.5 -9.5q-60 0 -60 63z" />
<glyph unicode="&#xa5;" horiz-adv-x="835" d="M47 533q0 83 124 83q49 0 161 -12q-59 151 -176 289q-74 89 -74 124q0 29 23 51.5t53 22.5q61 0 128 -94q53 -76 149 -278q34 53 94 172q57 115 92 169q33 43 70 43q77 0 77 -69q0 -90 -260 -444q154 -12 200 -26q63 -21 63 -77q0 -34 -24 -56t-61 -22q-9 0 -64 13 q-68 15 -129 23q15 -234 15 -285q0 -146 -80 -146q-78 0 -78 94q0 1 2 53.5t2 104.5q0 79 -6 194q-69 7 -125 7q-23 0 -53 -1t-36 -1q-87 0 -87 68z" />
<glyph unicode="&#xa8;" d="M181 1304q0 46 32 78.5t79 32.5q96 0 96 -96q0 -92 -125 -92q-82 0 -82 77zM512 1325q0 110 108 110q39 0 67.5 -27.5t28.5 -65.5q0 -92 -110 -92q-94 0 -94 75z" />
<glyph unicode="&#xa9;" horiz-adv-x="1105" d="M20 661q0 267 234 444q4 44 73 73q73 32 188 32q239 0 392 -147q160 -153 160 -397q0 -230 -144 -376.5t-376 -146.5q-243 0 -385 139t-142 379zM118 661q0 -196 113.5 -311t306.5 -115q197 0 315.5 116.5t118.5 309.5q0 202 -129.5 327.5t-339.5 125.5q-75 0 -124 -21 q-5 -15 -43 -43q-59 -44 -84 -67q-134 -123 -134 -322zM246 674q0 141 91 242t215 101q90 0 154 -51q58 -45 58 -99q0 -26 -17 -44.5t-42 -18.5q-21 0 -67 47t-100 47q-65 0 -116 -62q-53 -64 -53 -153q0 -150 159 -199q24 -7 143 -25q55 -8 55 -47q0 -69 -111 -69 q-153 0 -261 95t-108 236z" />
<glyph unicode="&#xab;" horiz-adv-x="913" d="M93 611q0 66 153 191q148 122 198 122q56 0 56 -54q0 -31 -81 -89q-118 -86 -188 -163q62 -64 208 -176q91 -70 91 -110q0 -52 -57 -52q-49 0 -214.5 140.5t-165.5 190.5zM477 691q0 45 146 145q159 108 207 108q51 0 51 -47q0 -31 -72 -78q-151 -101 -194 -135 q46 -69 149 -167q73 -71 73 -108q0 -55 -55 -55q-37 0 -157 119q-71 71 -113 139q-35 55 -35 79z" />
<glyph unicode="&#xad;" horiz-adv-x="504" d="M30 630q0 76 119 95q39 6 185 6q138 0 138 -83q0 -88 -96 -88q-4 0 -29.5 2t-47.5 2q-28 0 -92.5 -6t-100.5 -6q-76 0 -76 78z" />
<glyph unicode="&#xae;" horiz-adv-x="1105" d="M30 626q0 185 73 304q-20 19 -20 42q0 37 60 88q154 134 385 134q238 0 386.5 -144.5t148.5 -370.5q0 -231 -148.5 -374t-392.5 -143q-236 0 -364 120.5t-128 343.5zM131 626q0 -176 104.5 -274t289.5 -98q195 0 319 119.5t124 303.5q0 187 -124 306.5t-320 119.5 q-210 0 -318 -116q15 -13 15 -35v-5q0 -13 -9 -30q-42 -81 -53 -110q-28 -80 -28 -181zM301 661q0 222 36 283q45 71 206 71q96 0 154.5 -52t58.5 -136q0 -99 -117 -146q36 -53 120 -134q60 -58 60 -91q0 -52 -55 -52q-40 0 -118 81q-159 166 -159 213q0 31 28 38 q115 30 115 88q0 74 -89 74q-38 0 -106 -24q-15 -100 -15 -248q0 -60 7.5 -125.5t7.5 -68.5q0 -66 -58 -66q-57 0 -72 120q-4 35 -4 175z" />
<glyph unicode="&#xb4;" d="M331 1283q0 18 57 74q5 6 126 139q51 55 81 55q46 0 46 -40q0 -48 -116 -165q-102 -105 -148 -105q-17 0 -31.5 13t-14.5 29z" />
<glyph unicode="&#xb8;" d="M284 -241q0 43 52 43q7 0 29.5 -3t38.5 -3q124 0 124 84q0 55 -68 60q-62 6 -71 9q-22 8 -22 41q0 95 89 174h56q-23 -54 -23 -103q0 -13 4 -36q75 -5 117.5 -45t42.5 -100q0 -74 -71 -126q-74 -53 -183 -53q-115 0 -115 58z" />
<glyph unicode="&#xbb;" horiz-adv-x="974" d="M43 876q0 59 68 59q56 0 226 -99q223 -130 223 -188t-120 -203q-131 -158 -193 -158q-52 0 -52 52q0 27 71 102q92 96 141 187q-57 49 -153 101q-87 45 -172 91q-39 21 -39 56zM447 926q0 21 22 42.5t43 21.5q24 0 89 -38q82 -48 170 -127q155 -137 155 -209 q0 -53 -132 -211q-134 -159 -190 -159q-26 0 -44.5 18t-18.5 44q0 24 73 98q102 107 168 205q-93 100 -236 212q-99 76 -99 103z" />
<glyph unicode="&#xc0;" horiz-adv-x="1558" d="M-96 110q0 34 56.5 79t112.5 89q96 76 183 166q-146 58 -146 119q0 35 23 60t55 25q26 0 77 -24q90 -41 107 -48q343 450 385 656q12 71 25 142q17 53 80 53q52 0 70 -43q10 -26 17 -78q7 -63 14 -89q81 -329 313 -827q39 1 76 4l34 3q94 0 94 -85q0 -88 -98 -88h-25 q34 -68 115 -208q51 -88 51 -122q0 -84 -80 -84q-56 0 -123 105q-49 77 -161 308q-324 5 -734 151q-326 -341 -445 -341q-30 0 -53 22.5t-23 54.5zM538 512q264 -97 542 -120q-137 296 -238 628q-122 -275 -304 -508zM600 1711q0 22 19.5 41t43.5 19q29 0 73 -34l226 -174 q46 -36 46 -64q0 -47 -45 -47q-20 0 -62 28l-237 155q-64 42 -64 76z" />
<glyph unicode="&#xc1;" horiz-adv-x="1558" d="M-96 110q0 34 56.5 79t112.5 89q96 76 183 166q-146 58 -146 119q0 35 23 60t55 25q26 0 77 -24q90 -41 107 -48q343 450 385 656q12 71 25 142q17 53 80 53q52 0 70 -43q10 -26 17 -78q7 -63 14 -89q81 -329 313 -827q39 1 76 4l34 3q94 0 94 -85q0 -88 -98 -88h-25 q34 -68 115 -208q51 -88 51 -122q0 -84 -80 -84q-56 0 -123 105q-49 77 -161 308q-324 5 -734 151q-326 -341 -445 -341q-30 0 -53 22.5t-23 54.5zM538 512q264 -97 542 -120q-137 296 -238 628q-122 -275 -304 -508zM753 1504q0 18 57 74q5 6 126 139q51 55 81 55 q46 0 46 -40q0 -48 -116 -165q-102 -105 -148 -105q-17 0 -31.5 13t-14.5 29z" />
<glyph unicode="&#xc2;" horiz-adv-x="1558" d="M-96 110q0 34 56.5 79t112.5 89q96 76 183 166q-146 58 -146 119q0 35 23 60t55 25q26 0 77 -24q90 -41 107 -48q343 450 385 656q12 71 25 142q17 53 80 53q52 0 70 -43q10 -26 17 -78q7 -63 14 -89q81 -329 313 -827q39 1 76 4l34 3q94 0 94 -85q0 -88 -98 -88h-25 q34 -68 115 -208q51 -88 51 -122q0 -84 -80 -84q-56 0 -123 105q-49 77 -161 308q-324 5 -734 151q-326 -341 -445 -341q-30 0 -53 22.5t-23 54.5zM538 512q264 -97 542 -120q-137 296 -238 628q-122 -275 -304 -508zM580 1490q0 43 124 173q110 114 170 114q37 0 100 -57 q71 -66 122 -138q43 -64 43 -87q0 -17 -16.5 -32t-37.5 -15q-29 0 -82 64q-82 100 -139 151q-41 -35 -136 -142q-55 -62 -97 -62q-51 0 -51 31z" />
<glyph unicode="&#xc6;" horiz-adv-x="1850" d="M-10 -186q0 74 36 247q109 516 458 1132q-82 18 -82 83q0 104 236 104h27q28 72 87 72q56 0 85 -77q343 -13 686 -64q99 -15 135 -35q45 -26 45 -83q0 -34 -19.5 -56.5t-45.5 -22.5h-5l-17 2q-127 19 -253 38q-230 34 -453 49q87 -237 175 -520q196 25 385 67 q157 35 163 35q34 0 57.5 -25.5t23.5 -63.5q0 -69 -142 -105q-61 -16 -439 -76q65 -226 126 -467q373 48 468 48q162 0 162 -91q0 -37 -22 -56q-17 -14 -63 -25q-1 0 -8.5 -1t-13.5 -1q-5 0 -24.5 1t-33.5 1q-195 0 -429 -39l2 -10q-19 -98 -94 -98q-40 0 -61 43 q-12 25 -37 124q-17 72 -153 551q-293 -32 -630 -46q-84 -225 -132 -434q-23 -106 -44 -211q-17 -75 -81 -75q-75 0 -75 85zM394 623q272 14 508 37q-78 253 -185 548l-26 2q-203 -368 -297 -587z" />
<glyph unicode="&#xc7;" horiz-adv-x="1465" d="M90 548q0 256 105 447q91 168 242 257.5t339 89.5q294 0 470 -144q66 -55 66 -100q0 -34 -26 -60t-60 -26q-22 0 -63 29q-184 132 -374 132q-237 0 -378.5 -167.5t-141.5 -455.5q0 -580 505 -580q288 0 412 140q28 36 56 74q27 32 62 32q36 0 60.5 -24.5t24.5 -60.5 q0 -45 -48 -108q-52 -68 -137 -119q-159 -96 -408 -105q0 -36 3 -55q75 -5 117.5 -44.5t42.5 -99.5q0 -73 -71 -125q-73 -53 -183 -53q-115 0 -115 58q0 41 53 41q6 0 29 -2.5t39 -2.5q123 0 123 84q0 57 -65.5 62.5t-72.5 6.5q-22 8 -22 40q0 46 24 93 q-289 22 -448.5 216.5t-159.5 529.5z" />
<glyph unicode="&#xc8;" horiz-adv-x="1244" d="M33 -73q0 35 23.5 59t56.5 24h78q42 207 42 872q0 28 -3 311q-29 0 -58.5 -1t-30.5 -1q-89 0 -89 78q0 52 47 72q43 18 148 18q441 0 705 -80q176 -53 176 -125q0 -29 -22.5 -53.5t-48.5 -24.5q-16 0 -66 20q-63 27 -107 37q-116 29 -484 53q0 -154 -3 -488 q107 -7 206 -7q69 0 142.5 5t79.5 5q92 0 92 -78q0 -61 -77 -77q-53 -11 -237 -11q-102 0 -209 5q-9 -390 -32 -530h35q341 0 513 51q47 14 133 57q69 35 101 35q31 0 54 -22t23 -51q0 -72 -173 -138q-167 -63 -395 -83q-137 -12 -406 -12q-95 0 -129 7q-85 16 -85 73z M366 1711q0 22 19.5 41t43.5 19q29 0 73 -34l226 -174q46 -36 46 -64q0 -47 -45 -47q-20 0 -62 28l-237 155q-64 42 -64 76z" />
<glyph unicode="&#xc9;" horiz-adv-x="1244" d="M33 -73q0 35 23.5 59t56.5 24h78q42 207 42 872q0 28 -3 311q-29 0 -58.5 -1t-30.5 -1q-89 0 -89 78q0 52 47 72q43 18 148 18q441 0 705 -80q176 -53 176 -125q0 -29 -22.5 -53.5t-48.5 -24.5q-16 0 -66 20q-63 27 -107 37q-116 29 -484 53q0 -154 -3 -488 q107 -7 206 -7q69 0 142.5 5t79.5 5q92 0 92 -78q0 -61 -77 -77q-53 -11 -237 -11q-102 0 -209 5q-9 -390 -32 -530h35q341 0 513 51q47 14 133 57q69 35 101 35q31 0 54 -22t23 -51q0 -72 -173 -138q-167 -63 -395 -83q-137 -12 -406 -12q-95 0 -129 7q-85 16 -85 73z M519 1504q0 18 57 74q5 6 126 139q51 55 81 55q46 0 46 -40q0 -48 -116 -165q-102 -105 -148 -105q-17 0 -31.5 13t-14.5 29z" />
<glyph unicode="&#xca;" horiz-adv-x="1244" d="M33 -73q0 35 23.5 59t56.5 24h78q42 207 42 872q0 28 -3 311q-29 0 -58.5 -1t-30.5 -1q-89 0 -89 78q0 52 47 72q43 18 148 18q441 0 705 -80q176 -53 176 -125q0 -29 -22.5 -53.5t-48.5 -24.5q-16 0 -66 20q-63 27 -107 37q-116 29 -484 53q0 -154 -3 -488 q107 -7 206 -7q69 0 142.5 5t79.5 5q92 0 92 -78q0 -61 -77 -77q-53 -11 -237 -11q-102 0 -209 5q-9 -390 -32 -530h35q341 0 513 51q47 14 133 57q69 35 101 35q31 0 54 -22t23 -51q0 -72 -173 -138q-167 -63 -395 -83q-137 -12 -406 -12q-95 0 -129 7q-85 16 -85 73z M346 1490q0 43 124 173q110 114 170 114q37 0 100 -57q71 -66 122 -138q43 -64 43 -87q0 -17 -16.5 -32t-37.5 -15q-29 0 -82 64q-82 100 -139 151q-41 -35 -136 -142q-55 -62 -97 -62q-51 0 -51 31z" />
<glyph unicode="&#xcb;" horiz-adv-x="1244" d="M33 -73q0 35 23.5 59t56.5 24h78q42 207 42 872q0 28 -3 311q-29 0 -58.5 -1t-30.5 -1q-89 0 -89 78q0 52 47 72q43 18 148 18q441 0 705 -80q176 -53 176 -125q0 -29 -22.5 -53.5t-48.5 -24.5q-16 0 -66 20q-63 27 -107 37q-116 29 -484 53q0 -154 -3 -488 q107 -7 206 -7q69 0 142.5 5t79.5 5q92 0 92 -78q0 -61 -77 -77q-53 -11 -237 -11q-102 0 -209 5q-9 -390 -32 -530h35q341 0 513 51q47 14 133 57q69 35 101 35q31 0 54 -22t23 -51q0 -72 -173 -138q-167 -63 -395 -83q-137 -12 -406 -12q-95 0 -129 7q-85 16 -85 73z M369 1525q0 46 32 78.5t79 32.5q96 0 96 -96q0 -92 -125 -92q-82 0 -82 77zM700 1546q0 110 108 110q39 0 67.5 -27.5t28.5 -65.5q0 -92 -110 -92q-94 0 -94 75z" />
<glyph unicode="&#xcd;" horiz-adv-x="691" d="M0 1229q0 123 259 123q172 0 272 -47q95 -45 95 -119q0 -67 -53 -67q-13 0 -64 17q-66 21 -117 32q88 -308 88 -651q0 -220 -40 -567q33 9 97 36q47 19 69 19q30 0 50.5 -21.5t20.5 -53.5q0 -70 -81.5 -111.5t-231.5 -41.5q-149 0 -230.5 32t-81.5 86q0 90 84 90 q20 0 58 -12q59 -18 75 -21q35 340 35 565q0 365 -95 667q-37 -5 -86 -23q-43 -15 -57 -15q-27 0 -46.5 23.5t-19.5 59.5zM175 1504q0 18 57 74q5 6 126 139q51 55 81 55q46 0 46 -40q0 -48 -116 -165q-102 -105 -148 -105q-17 0 -31.5 13t-14.5 29z" />
<glyph unicode="&#xce;" horiz-adv-x="691" d="M0 1229q0 123 259 123q172 0 272 -47q95 -45 95 -119q0 -67 -53 -67q-13 0 -64 17q-66 21 -117 32q88 -308 88 -651q0 -220 -40 -567q33 9 97 36q47 19 69 19q30 0 50.5 -21.5t20.5 -53.5q0 -70 -81.5 -111.5t-231.5 -41.5q-149 0 -230.5 32t-81.5 86q0 90 84 90 q20 0 58 -12q59 -18 75 -21q35 340 35 565q0 365 -95 667q-37 -5 -86 -23q-43 -15 -57 -15q-27 0 -46.5 23.5t-19.5 59.5zM2 1490q0 43 124 173q110 114 170 114q37 0 100 -57q71 -66 122 -138q43 -64 43 -87q0 -17 -16.5 -32t-37.5 -15q-29 0 -82 64q-82 100 -139 151 q-41 -35 -136 -142q-55 -62 -97 -62q-51 0 -51 31z" />
<glyph unicode="&#xcf;" horiz-adv-x="691" d="M0 1229q0 123 259 123q172 0 272 -47q95 -45 95 -119q0 -67 -53 -67q-13 0 -64 17q-66 21 -117 32q88 -308 88 -651q0 -220 -40 -567q33 9 97 36q47 19 69 19q30 0 50.5 -21.5t20.5 -53.5q0 -70 -81.5 -111.5t-231.5 -41.5q-149 0 -230.5 32t-81.5 86q0 90 84 90 q20 0 58 -12q59 -18 75 -21q35 340 35 565q0 365 -95 667q-37 -5 -86 -23q-43 -15 -57 -15q-27 0 -46.5 23.5t-19.5 59.5zM25 1525q0 46 32 78.5t79 32.5q96 0 96 -96q0 -92 -125 -92q-82 0 -82 77zM356 1546q0 110 108 110q39 0 67.5 -27.5t28.5 -65.5q0 -92 -110 -92 q-94 0 -94 75z" />
<glyph unicode="&#xd3;" horiz-adv-x="1552" d="M70 535q0 360 165 583q179 239 519 239q342 0 535 -213t193 -599q0 -360 -195.5 -561.5t-535.5 -201.5q-302 0 -493 208q-188 203 -188 545zM251 550q0 -273 143.5 -436.5t373.5 -163.5q244 0 388 155q146 159 146 435q0 313 -141.5 479.5t-403.5 166.5 q-248 0 -377 -162.5t-129 -473.5zM672 1504q0 18 57 74q5 6 126 139q51 55 81 55q46 0 46 -40q0 -48 -116 -165q-102 -105 -148 -105q-17 0 -31.5 13t-14.5 29z" />
<glyph unicode="&#xd4;" horiz-adv-x="1552" d="M70 535q0 360 165 583q179 239 519 239q342 0 535 -213t193 -599q0 -360 -195.5 -561.5t-535.5 -201.5q-302 0 -493 208q-188 203 -188 545zM251 550q0 -273 143.5 -436.5t373.5 -163.5q244 0 388 155q146 159 146 435q0 313 -141.5 479.5t-403.5 166.5 q-248 0 -377 -162.5t-129 -473.5zM499 1490q0 43 124 173q110 114 170 114q37 0 100 -57q71 -66 122 -138q43 -64 43 -87q0 -17 -16.5 -32t-37.5 -15q-29 0 -82 64q-82 100 -139 151q-41 -35 -136 -142q-55 -62 -97 -62q-51 0 -51 31z" />
<glyph unicode="&#xd9;" horiz-adv-x="1493" d="M133 310q0 456 255 861l-43 -5q-3 0 -8 -1t-8 -1q-70 0 -70 70q0 129 279 129q104 0 181 -51q71 -46 71 -99q0 -31 -25 -57t-54 -26q-23 0 -59 23q-44 29 -69 36q-282 -416 -282 -877q0 -392 335 -392q545 0 545 809q0 281 -35 474q-35 -14 -73 -14q-30 0 -52.5 25.5 t-22.5 61.5q0 48 70 81q73 34 187 34q89 0 142 -35.5t53 -89.5q0 -75 -71 -75q-17 0 -61 15q31 -258 31 -455q0 -487 -182.5 -742.5t-522.5 -255.5q-247 0 -379 143t-132 414zM583 1711q0 22 19.5 41t43.5 19q29 0 73 -34l226 -174q46 -36 46 -64q0 -47 -45 -47 q-20 0 -62 28l-237 155q-64 42 -64 76z" />
<glyph unicode="&#xda;" horiz-adv-x="1493" d="M133 310q0 456 255 861l-43 -5q-3 0 -8 -1t-8 -1q-70 0 -70 70q0 129 279 129q104 0 181 -51q71 -46 71 -99q0 -31 -25 -57t-54 -26q-23 0 -59 23q-44 29 -69 36q-282 -416 -282 -877q0 -392 335 -392q545 0 545 809q0 281 -35 474q-35 -14 -73 -14q-30 0 -52.5 25.5 t-22.5 61.5q0 48 70 81q73 34 187 34q89 0 142 -35.5t53 -89.5q0 -75 -71 -75q-17 0 -61 15q31 -258 31 -455q0 -487 -182.5 -742.5t-522.5 -255.5q-247 0 -379 143t-132 414zM736 1504q0 18 57 74q5 6 126 139q51 55 81 55q46 0 46 -40q0 -48 -116 -165 q-102 -105 -148 -105q-17 0 -31.5 13t-14.5 29z" />
<glyph unicode="&#xdb;" horiz-adv-x="1493" d="M133 310q0 456 255 861l-43 -5q-3 0 -8 -1t-8 -1q-70 0 -70 70q0 129 279 129q104 0 181 -51q71 -46 71 -99q0 -31 -25 -57t-54 -26q-23 0 -59 23q-44 29 -69 36q-282 -416 -282 -877q0 -392 335 -392q545 0 545 809q0 281 -35 474q-35 -14 -73 -14q-30 0 -52.5 25.5 t-22.5 61.5q0 48 70 81q73 34 187 34q89 0 142 -35.5t53 -89.5q0 -75 -71 -75q-17 0 -61 15q31 -258 31 -455q0 -487 -182.5 -742.5t-522.5 -255.5q-247 0 -379 143t-132 414zM563 1490q0 43 124 173q110 114 170 114q37 0 100 -57q71 -66 122 -138q43 -64 43 -87 q0 -17 -16.5 -32t-37.5 -15q-29 0 -82 64q-82 100 -139 151q-41 -35 -136 -142q-55 -62 -97 -62q-51 0 -51 31z" />
<glyph unicode="&#xdc;" horiz-adv-x="1493" d="M133 310q0 456 255 861l-43 -5q-3 0 -8 -1t-8 -1q-70 0 -70 70q0 129 279 129q104 0 181 -51q71 -46 71 -99q0 -31 -25 -57t-54 -26q-23 0 -59 23q-44 29 -69 36q-282 -416 -282 -877q0 -392 335 -392q545 0 545 809q0 281 -35 474q-35 -14 -73 -14q-30 0 -52.5 25.5 t-22.5 61.5q0 48 70 81q73 34 187 34q89 0 142 -35.5t53 -89.5q0 -75 -71 -75q-17 0 -61 15q31 -258 31 -455q0 -487 -182.5 -742.5t-522.5 -255.5q-247 0 -379 143t-132 414zM586 1525q0 46 32 78.5t79 32.5q96 0 96 -96q0 -92 -125 -92q-82 0 -82 77zM917 1546 q0 110 108 110q39 0 67.5 -27.5t28.5 -65.5q0 -92 -110 -92q-94 0 -94 75z" />
<glyph unicode="&#xdd;" horiz-adv-x="1182" d="M-17 1300q0 92 85 92q53 0 70 -36q12 -26 29 -99q21 -81 39 -127q110 -292 322 -515q294 239 512 619q32 58 65 116q29 42 66 42q38 0 64.5 -26.5t26.5 -63.5q0 -64 -122 -247q-230 -346 -527 -571l2 -2v-106q0 -74 0.5 -180t0.5 -136q0 -170 -15 -227q-20 -74 -84 -74 q-78 0 -78 133q0 7 3 120t3 219v218q-135 125 -290 398q-172 305 -172 453zM504 1504q0 18 57 74q5 6 126 139q51 55 81 55q46 0 46 -40q0 -48 -116 -165q-102 -105 -148 -105q-17 0 -31.5 13t-14.5 29z" />
<glyph unicode="&#xe0;" horiz-adv-x="957" d="M75 310q0 169 99.5 268t264.5 99q143 0 242 -96q-16 336 -249 336q-52 0 -111 -31t-77 -31q-29 0 -52 24t-23 54q0 51 74 95q79 46 189 46q407 0 407 -559q0 -233 -68 -487q-34 -127 -101 -127q-69 0 -69 78q0 18 2 26q-87 -47 -180 -47q-164 0 -256 93t-92 259z M221 1490q0 22 19.5 41t43.5 19q29 0 73 -34l226 -174q46 -36 46 -64q0 -47 -45 -47q-20 0 -62 28l-237 155q-64 42 -64 76zM241 317q0 -216 221 -216q96 0 150 56.5t54 157.5q0 216 -203 216q-222 0 -222 -214z" />
<glyph unicode="&#xe1;" horiz-adv-x="957" d="M75 310q0 169 99.5 268t264.5 99q143 0 242 -96q-16 336 -249 336q-52 0 -111 -31t-77 -31q-29 0 -52 24t-23 54q0 51 74 95q79 46 189 46q407 0 407 -559q0 -233 -68 -487q-34 -127 -101 -127q-69 0 -69 78q0 18 2 26q-87 -47 -180 -47q-164 0 -256 93t-92 259zM241 317 q0 -216 221 -216q96 0 150 56.5t54 157.5q0 216 -203 216q-222 0 -222 -214zM374 1283q0 18 57 74q5 6 126 139q51 55 81 55q46 0 46 -40q0 -48 -116 -165q-102 -105 -148 -105q-17 0 -31.5 13t-14.5 29z" />
<glyph unicode="&#xe2;" horiz-adv-x="957" d="M75 310q0 169 99.5 268t264.5 99q143 0 242 -96q-16 336 -249 336q-52 0 -111 -31t-77 -31q-29 0 -52 24t-23 54q0 51 74 95q79 46 189 46q407 0 407 -559q0 -233 -68 -487q-34 -127 -101 -127q-69 0 -69 78q0 18 2 26q-87 -47 -180 -47q-164 0 -256 93t-92 259z M201 1269q0 43 124 173q110 114 170 114q37 0 100 -57q71 -66 122 -138q43 -64 43 -87q0 -17 -16.5 -32t-37.5 -15q-29 0 -82 64q-82 100 -139 151q-41 -35 -136 -142q-55 -62 -97 -62q-51 0 -51 31zM241 317q0 -216 221 -216q96 0 150 56.5t54 157.5q0 216 -203 216 q-222 0 -222 -214z" />
<glyph unicode="&#xe6;" horiz-adv-x="1418" d="M60 416q0 189 109 304q108 112 281 112q100 0 193 -61q-40 179 -191 179q-56 0 -122 -34q-32 -15 -129 -79q-36 -23 -65 -23q-28 0 -49 22t-21 51q0 49 80 98q175 108 331 108q182 0 268 -156q108 203 383 203q133 0 218 -42q76 -38 76 -90q0 -66 -71 -66q-24 0 -99.5 19 t-125.5 19q-136 0 -221 -76t-104 -216q96 -11 230 -13q102 -3 127 -10q46 -14 46 -62q0 -75 -172 -75q-108 0 -242 19v-35q0 -180 82 -263t258 -83q46 0 106 13.5t75 13.5q63 0 63 -60q0 -130 -253 -130q-244 0 -374 161q-7 -119 -82 -119q-64 0 -64 106q0 33 2 53 q-101 -101 -226 -101q-142 0 -229.5 84.5t-87.5 228.5zM226 425q0 -83 55.5 -130.5t148.5 -47.5q89 0 147.5 80t58.5 198q0 175 -164 175q-105 0 -175.5 -79t-70.5 -196z" />
<glyph unicode="&#xe7;" horiz-adv-x="1149" d="M68 603q0 286 159 453.5t426 167.5q189 0 341 -101q51 -34 51 -89q0 -77 -82 -77q-31 0 -122 49q-88 47 -183 47q-196 0 -305 -114.5t-109 -320.5q0 -174 103.5 -273t285.5 -99q169 0 291 114q26 26 53 50.5t57 24.5q80 0 80 -78q0 -75 -146 -181q-130 -94 -332 -110 q-4 -24 -4 -35q0 -16 1 -23q176 -7 176 -156q0 -153 -246 -153q-111 0 -111 57q0 43 53 43q2 0 26.5 -2.5t48.5 -2.5q109 0 109 60q0 64 -74 71q-56 5 -61 8q-18 7 -18 41q0 37 27 97q-233 23 -364 165t-131 367z" />
<glyph unicode="&#xe8;" horiz-adv-x="973" d="M54 508q0 243 129 418q147 200 364 200q169 0 278.5 -113t109.5 -287q0 -88 -61 -131q-27 -19 -173 -48q-193 -40 -329 -40q-62 0 -149 8q0 -320 244 -320q67 0 121 38q27 19 98 91q25 26 54 26q35 0 61 -26.5t26 -65.5q0 -33 -25 -60q-146 -160 -342 -160 q-406 0 -406 470zM239 666q60 -6 128 -6q165 0 399 56q-5 118 -61.5 187t-141.5 69q-111 0 -195 -80q-87 -79 -129 -226zM306 1490q0 22 19.5 41t43.5 19q29 0 73 -34l226 -174q46 -36 46 -64q0 -47 -45 -47q-20 0 -62 28l-237 155q-64 42 -64 76z" />
<glyph unicode="&#xe9;" horiz-adv-x="973" d="M54 508q0 243 129 418q147 200 364 200q169 0 278.5 -113t109.5 -287q0 -88 -61 -131q-27 -19 -173 -48q-193 -40 -329 -40q-62 0 -149 8q0 -320 244 -320q67 0 121 38q27 19 98 91q25 26 54 26q35 0 61 -26.5t26 -65.5q0 -33 -25 -60q-146 -160 -342 -160 q-406 0 -406 470zM239 666q60 -6 128 -6q165 0 399 56q-5 118 -61.5 187t-141.5 69q-111 0 -195 -80q-87 -79 -129 -226zM459 1283q0 18 57 74q5 6 126 139q51 55 81 55q46 0 46 -40q0 -48 -116 -165q-102 -105 -148 -105q-17 0 -31.5 13t-14.5 29z" />
<glyph unicode="&#xea;" horiz-adv-x="973" d="M54 508q0 243 129 418q147 200 364 200q169 0 278.5 -113t109.5 -287q0 -88 -61 -131q-27 -19 -173 -48q-193 -40 -329 -40q-62 0 -149 8q0 -320 244 -320q67 0 121 38q27 19 98 91q25 26 54 26q35 0 61 -26.5t26 -65.5q0 -33 -25 -60q-146 -160 -342 -160 q-406 0 -406 470zM239 666q60 -6 128 -6q165 0 399 56q-5 118 -61.5 187t-141.5 69q-111 0 -195 -80q-87 -79 -129 -226zM286 1269q0 43 124 173q110 114 170 114q37 0 100 -57q71 -66 122 -138q43 -64 43 -87q0 -17 -16.5 -32t-37.5 -15q-29 0 -82 64q-82 100 -139 151 q-41 -35 -136 -142q-55 -62 -97 -62q-51 0 -51 31z" />
<glyph unicode="&#xeb;" horiz-adv-x="973" d="M54 508q0 243 129 418q147 200 364 200q169 0 278.5 -113t109.5 -287q0 -88 -61 -131q-27 -19 -173 -48q-193 -40 -329 -40q-62 0 -149 8q0 -320 244 -320q67 0 121 38q27 19 98 91q25 26 54 26q35 0 61 -26.5t26 -65.5q0 -33 -25 -60q-146 -160 -342 -160 q-406 0 -406 470zM239 666q60 -6 128 -6q165 0 399 56q-5 118 -61.5 187t-141.5 69q-111 0 -195 -80q-87 -79 -129 -226zM309 1304q0 46 32 78.5t79 32.5q96 0 96 -96q0 -92 -125 -92q-82 0 -82 77zM640 1325q0 110 108 110q39 0 67.5 -27.5t28.5 -65.5q0 -92 -110 -92 q-94 0 -94 75z" />
<glyph unicode="&#xed;" horiz-adv-x="659" d="M68 148q0 94 183 94q-7 243 -7 324q0 129 12 310q-96 2 -96 79q0 83 188 83q162 0 162 -83q0 -72 -92 -78q-11 -209 -11 -309q0 -166 18 -322q145 0 145 -70q0 -111 -258 -111q-106 0 -145 6q-99 17 -99 77zM226 1283q0 18 57 74q5 6 126 139q51 55 81 55q46 0 46 -40 q0 -48 -116 -165q-102 -105 -148 -105q-17 0 -31.5 13t-14.5 29z" />
<glyph unicode="&#xee;" horiz-adv-x="659" d="M68 148q0 94 183 94q-7 243 -7 324q0 129 12 310q-96 2 -96 79q0 83 188 83q162 0 162 -83q0 -72 -92 -78q-11 -209 -11 -309q0 -166 18 -322q145 0 145 -70q0 -111 -258 -111q-106 0 -145 6q-99 17 -99 77zM68 1269q0 43 124 173q110 114 170 114q37 0 100 -57 q71 -66 122 -138q43 -64 43 -87q0 -17 -16.5 -32t-37.5 -15q-29 0 -82 64q-82 100 -139 151q-41 -35 -136 -142q-55 -62 -97 -62q-51 0 -51 31z" />
<glyph unicode="&#xef;" horiz-adv-x="659" d="M68 148q0 94 183 94q-7 243 -7 324q0 129 12 310q-96 2 -96 79q0 83 188 83q162 0 162 -83q0 -72 -92 -78q-11 -209 -11 -309q0 -166 18 -322q145 0 145 -70q0 -111 -258 -111q-106 0 -145 6q-99 17 -99 77zM76 1304q0 46 32 78.5t79 32.5q96 0 96 -96q0 -92 -125 -92 q-82 0 -82 77zM407 1325q0 110 108 110q39 0 67.5 -27.5t28.5 -65.5q0 -92 -110 -92q-94 0 -94 75z" />
<glyph unicode="&#xf3;" horiz-adv-x="1068" d="M50 593q0 259 139 401q136 141 377 141q202 0 327 -142t125 -375q0 -250 -146 -398.5t-390 -148.5q-202 0 -317 138.5t-115 383.5zM219 595q0 -178 70 -273.5t200 -95.5q168 0 264 103t96 287q0 171 -83 267.5t-226 96.5q-321 0 -321 -385zM442 1283q0 18 57 74 q5 6 126 139q51 55 81 55q46 0 46 -40q0 -48 -116 -165q-102 -105 -148 -105q-17 0 -31.5 13t-14.5 29z" />
<glyph unicode="&#xf4;" horiz-adv-x="1068" d="M50 593q0 259 139 401q136 141 377 141q202 0 327 -142t125 -375q0 -250 -146 -398.5t-390 -148.5q-202 0 -317 138.5t-115 383.5zM219 595q0 -178 70 -273.5t200 -95.5q168 0 264 103t96 287q0 171 -83 267.5t-226 96.5q-321 0 -321 -385zM269 1269q0 43 124 173 q110 114 170 114q37 0 100 -57q71 -66 122 -138q43 -64 43 -87q0 -17 -16.5 -32t-37.5 -15q-29 0 -82 64q-82 100 -139 151q-41 -35 -136 -142q-55 -62 -97 -62q-51 0 -51 31z" />
<glyph unicode="&#xf9;" horiz-adv-x="1122" d="M133 538q0 278 36 484q22 127 108 127q31 0 54 -23t23 -53q0 -27 -25 -211t-25 -342q0 -364 201 -364q130 0 206 101t76 284v51q0 284 15 365q20 116 95 116q71 0 71 -100q0 -18 -7 -129t-7 -203q0 -217 32 -400t32 -158q0 -41 -24.5 -69t-60.5 -28q-67 0 -113 207 q-143 -196 -348 -196q-339 0 -339 541zM333 1490q0 22 19.5 41t43.5 19q29 0 73 -34l226 -174q46 -36 46 -64q0 -47 -45 -47q-20 0 -62 28l-237 155q-64 42 -64 76z" />
<glyph unicode="&#xfa;" horiz-adv-x="1122" d="M133 538q0 278 36 484q22 127 108 127q31 0 54 -23t23 -53q0 -27 -25 -211t-25 -342q0 -364 201 -364q130 0 206 101t76 284v51q0 284 15 365q20 116 95 116q71 0 71 -100q0 -18 -7 -129t-7 -203q0 -217 32 -400t32 -158q0 -41 -24.5 -69t-60.5 -28q-67 0 -113 207 q-143 -196 -348 -196q-339 0 -339 541zM486 1283q0 18 57 74q5 6 126 139q51 55 81 55q46 0 46 -40q0 -48 -116 -165q-102 -105 -148 -105q-17 0 -31.5 13t-14.5 29z" />
<glyph unicode="&#xfb;" horiz-adv-x="1122" d="M133 538q0 278 36 484q22 127 108 127q31 0 54 -23t23 -53q0 -27 -25 -211t-25 -342q0 -364 201 -364q130 0 206 101t76 284v51q0 284 15 365q20 116 95 116q71 0 71 -100q0 -18 -7 -129t-7 -203q0 -217 32 -400t32 -158q0 -41 -24.5 -69t-60.5 -28q-67 0 -113 207 q-143 -196 -348 -196q-339 0 -339 541zM313 1269q0 43 124 173q110 114 170 114q37 0 100 -57q71 -66 122 -138q43 -64 43 -87q0 -17 -16.5 -32t-37.5 -15q-29 0 -82 64q-82 100 -139 151q-41 -35 -136 -142q-55 -62 -97 -62q-51 0 -51 31z" />
<glyph unicode="&#xfc;" horiz-adv-x="1122" d="M133 538q0 278 36 484q22 127 108 127q31 0 54 -23t23 -53q0 -27 -25 -211t-25 -342q0 -364 201 -364q130 0 206 101t76 284v51q0 284 15 365q20 116 95 116q71 0 71 -100q0 -18 -7 -129t-7 -203q0 -217 32 -400t32 -158q0 -41 -24.5 -69t-60.5 -28q-67 0 -113 207 q-143 -196 -348 -196q-339 0 -339 541zM336 1304q0 46 32 78.5t79 32.5q96 0 96 -96q0 -92 -125 -92q-82 0 -82 77zM667 1325q0 110 108 110q39 0 67.5 -27.5t28.5 -65.5q0 -92 -110 -92q-94 0 -94 75z" />
<glyph unicode="&#xfd;" horiz-adv-x="772" d="M25 1062q0 76 73 76q46 0 92 -80l82 -178q73 -156 168 -290q63 162 101 338q40 183 40 186q25 70 77 70q78 0 78 -103q0 -107 -87 -370q-79 -243 -287 -617l-84 -168q-37 -65 -87 -65q-29 0 -53.5 25.5t-24.5 55.5q0 55 75 185q172 298 178 308q-167 225 -264 418 q-77 154 -77 209zM283 1283q0 18 57 74q5 6 126 139q51 55 81 55q46 0 46 -40q0 -48 -116 -165q-102 -105 -148 -105q-17 0 -31.5 13t-14.5 29z" />
<glyph unicode="&#xff;" horiz-adv-x="772" d="M25 1062q0 76 73 76q46 0 92 -80l82 -178q73 -156 168 -290q63 162 101 338q40 183 40 186q25 70 77 70q78 0 78 -103q0 -107 -87 -370q-79 -243 -287 -617l-84 -168q-37 -65 -87 -65q-29 0 -53.5 25.5t-24.5 55.5q0 55 75 185q172 298 178 308q-167 225 -264 418 q-77 154 -77 209zM133 1304q0 46 32 78.5t79 32.5q96 0 96 -96q0 -92 -125 -92q-82 0 -82 77zM464 1325q0 110 108 110q39 0 67.5 -27.5t28.5 -65.5q0 -92 -110 -92q-94 0 -94 75z" />
<glyph unicode="&#x152;" horiz-adv-x="2159" d="M58 485q0 426 199 658q196 229 552 229q293 0 467 -256q96 70 261 113q177 47 380 47q139 0 139 -89q0 -64 -63 -79q-15 -3 -183 -10q-266 -11 -459 -125q51 -126 61 -247q280 26 393 26q125 0 125 -87q0 -79 -106 -85q-82 -2 -412 -27q-10 -173 -65 -337 q172 -87 390 -87q89 0 206 7.5t146 7.5h11q74 0 74 -74q0 -73 -88 -94q-64 -14 -276 -14h-71q-286 0 -465 108q-170 -256 -508 -256q-708 0 -708 671zM239 487q0 -266 123 -385t404 -119q230 0 355 158t125 447q0 261 -123 446q-113 169 -312 169q-572 0 -572 -716z" />
<glyph unicode="&#x153;" horiz-adv-x="1566" d="M75 512q0 250 146 411.5t369 161.5q216 0 319 -173q98 224 142 251q74 43 239 43q291 0 291 -121q0 -29 -21.5 -49.5t-51.5 -20.5q-24 0 -97 15.5t-122 15.5q-78 0 -164 -24q-74 -145 -112 -296q169 -33 228 -58q73 -31 73 -83q0 -34 -22.5 -56t-57.5 -22q-13 0 -86 23 q-83 28 -158 40q-15 -113 -15 -220q0 -88 10 -174q87 -30 193 -30q74 0 168 7t114 7q96 0 96 -78q0 -58 -75 -81q-70 -22 -233 -22q-156 0 -271 24q-97 21 -120 45q-32 34 -32 159q0 9 1 31t1 33q-145 -178 -367 -178q-174 0 -279.5 113.5t-105.5 305.5zM244 517 q0 -256 236 -256q158 0 264.5 104.5t106.5 259.5q0 132 -69 210.5t-179 78.5q-153 0 -256 -115t-103 -282z" />
<glyph unicode="&#x160;" horiz-adv-x="1086" d="M68 794q0 248 155.5 403t401.5 155q141 0 267 -78q23 89 90 89q81 0 81 -113q0 -25 -9 -80.5t-9 -83.5v-26q0 -93 -12 -123q-17 -44 -73 -44q-61 0 -82 79q-11 39 -13 130q-116 82 -244 82q-163 0 -268.5 -105.5t-105.5 -269.5q0 -140 67 -203q47 -43 204 -98 q142 -48 194 -73q89 -41 135 -98q70 -83 70 -221q0 -142 -108 -225.5t-296 -83.5q-141 0 -226 70l-1 -173q-1 -86 -84 -86q-86 0 -86 114v124q0 245 15 322q19 104 85 104q52 0 70 -41q10 -26 17 -73q9 -62 14 -81q27 -112 172 -112q251 0 251 150q0 74 -54 120 q-44 38 -156 79l-154 55q-169 62 -237 151q-71 93 -71 264zM333 1744q0 45 60 45q80 0 244 -188q76 89 152 142q63 43 92 43q17 0 35.5 -20t18.5 -39q0 -23 -36 -47q-44 -27 -89 -54q-49 -32 -116 -109q-50 -57 -79 -57q-9 0 -15 2q-84 103 -193 199q-74 65 -74 83z" />
<glyph unicode="&#x161;" horiz-adv-x="792" d="M28 219q0 105 90 105q76 0 78 -117q62 -73 138 -73q64 0 104.5 39t40.5 96q0 53 -50 100q-1 2 -125 99q-171 136 -171 319q0 149 91 240.5t239 91.5q122 0 209 -63q82 -61 82 -135q0 -85 -86 -85q-30 0 -47 21q-12 19 -24 40q-53 68 -141 68q-150 0 -150 -171 q0 -60 27 -102q23 -37 83 -83q134 -102 167 -141q70 -80 70 -184q0 -136 -88.5 -221.5t-230.5 -85.5q-135 0 -222 71q-84 68 -84 171zM183 1523q0 45 60 45q80 0 244 -188q76 89 152 142q63 43 92 43q17 0 35.5 -20t18.5 -39q0 -23 -36 -47q-44 -27 -89 -54 q-49 -32 -116 -109q-50 -57 -79 -57q-9 0 -15 2q-84 103 -193 199q-74 65 -74 83z" />
<glyph unicode="&#x178;" horiz-adv-x="1182" d="M-17 1300q0 92 85 92q53 0 70 -36q12 -26 29 -99q21 -81 39 -127q110 -292 322 -515q294 239 512 619q32 58 65 116q29 42 66 42q38 0 64.5 -26.5t26.5 -63.5q0 -64 -122 -247q-230 -346 -527 -571l2 -2v-106q0 -74 0.5 -180t0.5 -136q0 -170 -15 -227q-20 -74 -84 -74 q-78 0 -78 133q0 7 3 120t3 219v218q-135 125 -290 398q-172 305 -172 453zM354 1525q0 46 32 78.5t79 32.5q96 0 96 -96q0 -92 -125 -92q-82 0 -82 77zM685 1546q0 110 108 110q39 0 67.5 -27.5t28.5 -65.5q0 -92 -110 -92q-94 0 -94 75z" />
<glyph unicode="&#x17d;" horiz-adv-x="1587" d="M8 1182q0 56 108 85q245 68 483 68q311 0 501 -74q176 -68 176 -168q0 -110 -242 -370q-259 -278 -738 -663q154 -88 381 -88q206 0 394 67q184 66 306 179l99 99q43 42 74 42q32 0 58.5 -25.5t26.5 -56.5q0 -65 -125 -172q-167 -143 -385 -221.5t-448 -78.5 q-290 0 -482 113q-115 68 -115 136q0 42 75 110q98 82 197 165q545 457 733 738q-172 91 -505 91q-165 0 -328 -31t-164 -31q-80 0 -80 86zM344 1744q0 45 60 45q80 0 244 -188q76 89 152 142q63 43 92 43q17 0 35.5 -20t18.5 -39q0 -23 -36 -47q-44 -27 -89 -54 q-49 -32 -116 -109q-50 -57 -79 -57q-9 0 -15 2q-84 103 -193 199q-74 65 -74 83z" />
<glyph unicode="&#x17e;" horiz-adv-x="898" d="M-3 191q0 63 125 234q280 381 517 578q-235 40 -409 40h-72q-128 0 -128 80q0 83 141 83q231 0 468 -42q251 -44 251 -142q0 -30 -28 -53q-38 -25 -75 -52q-241 -166 -585 -642q206 -109 446 -109q63 0 131 11t74 11q92 0 92 -80q0 -103 -297 -103q-243 0 -523 133 q-23 -32 -54 -32q-30 0 -52 25t-22 60zM152 1523q0 45 60 45q80 0 244 -188q76 89 152 142q63 43 92 43q17 0 35.5 -20t18.5 -39q0 -23 -36 -47q-44 -27 -89 -54q-49 -32 -116 -109q-50 -57 -79 -57q-9 0 -15 2q-84 103 -193 199q-74 65 -74 83z" />
<glyph unicode="&#x2c6;" d="M158 1269q0 43 124 173q110 114 170 114q37 0 100 -57q71 -66 122 -138q43 -64 43 -87q0 -17 -16.5 -32t-37.5 -15q-29 0 -82 64q-82 100 -139 151q-41 -35 -136 -142q-55 -62 -97 -62q-51 0 -51 31z" />
<glyph unicode="&#x2da;" d="M237 1407q0 83 55 135.5t145 52.5q93 0 147 -50.5t54 -137.5q0 -88 -57 -144.5t-144 -56.5t-143.5 56t-56.5 145zM331 1400q0 -48 28 -81t69 -33q51 0 85.5 35t34.5 86q0 47 -30 79t-74 32q-50 0 -81.5 -32.5t-31.5 -85.5z" />
<glyph unicode="&#x2dc;" d="M141 1306q0 32 38 86q73 103 140 103q29 0 86 -57q68 -70 145 -103q85 130 141 130q33 0 33 -41q0 -66 -66 -130.5t-133 -64.5q-74 0 -227 162q-68 -132 -120 -132q-37 0 -37 47z" />
<glyph unicode="&#x2000;" horiz-adv-x="894" />
<glyph unicode="&#x2001;" horiz-adv-x="1789" />
<glyph unicode="&#x2002;" horiz-adv-x="894" />
<glyph unicode="&#x2003;" horiz-adv-x="1789" />
<glyph unicode="&#x2004;" horiz-adv-x="596" />
<glyph unicode="&#x2005;" horiz-adv-x="447" />
<glyph unicode="&#x2006;" horiz-adv-x="298" />
<glyph unicode="&#x2007;" horiz-adv-x="298" />
<glyph unicode="&#x2008;" horiz-adv-x="223" />
<glyph unicode="&#x2009;" horiz-adv-x="357" />
<glyph unicode="&#x200a;" horiz-adv-x="99" />
<glyph unicode="&#x2010;" horiz-adv-x="504" d="M30 630q0 76 119 95q39 6 185 6q138 0 138 -83q0 -88 -96 -88q-4 0 -29.5 2t-47.5 2q-28 0 -92.5 -6t-100.5 -6q-76 0 -76 78z" />
<glyph unicode="&#x2011;" horiz-adv-x="504" d="M30 630q0 76 119 95q39 6 185 6q138 0 138 -83q0 -88 -96 -88q-4 0 -29.5 2t-47.5 2q-28 0 -92.5 -6t-100.5 -6q-76 0 -76 78z" />
<glyph unicode="&#x2012;" horiz-adv-x="504" d="M30 630q0 76 119 95q39 6 185 6q138 0 138 -83q0 -88 -96 -88q-4 0 -29.5 2t-47.5 2q-28 0 -92.5 -6t-100.5 -6q-76 0 -76 78z" />
<glyph unicode="&#x2013;" d="M-75 522q0 51 55 51q2 0 121 -24t236 -24q176 0 352.5 29t179.5 29q57 0 57 -61q0 -59 -84 -80q-188 -47 -508 -47q-409 0 -409 127z" />
<glyph unicode="&#x2014;" horiz-adv-x="1740" d="M-56 487q0 52 73 73q356 105 813 105q536 0 904 -112q95 -29 95 -83q0 -25 -17.5 -43t-42.5 -18q-7 0 -146 31q-436 98 -741 98q-328 0 -671 -61q-44 -8 -126 -28q-61 -15 -83 -15q-58 0 -58 53z" />
<glyph unicode="&#x2018;" horiz-adv-x="348" d="M54 1109q0 103 74 183q68 75 146 75q46 0 46 -37q0 -25 -68 -58q-71 -35 -81 -97q104 -5 104 -95q0 -47 -32 -78.5t-79 -31.5q-50 0 -79 36q-31 38 -31 103z" />
<glyph unicode="&#x2019;" horiz-adv-x="348" d="M42 1259q0 45 34 76.5t88 31.5q61 0 100 -47.5t39 -125.5q0 -109 -60 -184q-57 -72 -133 -72q-58 0 -58 44q0 28 38 45q52 24 70 48q21 30 21 89q-139 0 -139 95z" />
<glyph unicode="&#x201a;" horiz-adv-x="348" d="M25 171q0 47 32 75t86 28q72 0 118.5 -54.5t46.5 -141.5q0 -84 -41.5 -145.5t-88.5 -61.5q-58 0 -58 44q0 17 30.5 61t30.5 89q0 13 -2 20q-34 -15 -63 -15q-38 0 -64.5 28.5t-26.5 72.5z" />
<glyph unicode="&#x201c;" horiz-adv-x="697" d="M48 1142q0 76 46 146q41 66 80 66q49 0 49 -43q0 -20 -36 -69.5t-36 -97.5q0 -18 2 -26q52 31 82 31q79 0 79 -91q0 -46 -33 -76t-86 -30q-63 0 -105 54.5t-42 135.5zM376 1144q0 96 74 174q69 73 140 73q49 0 49 -42q0 -29 -23 -44q-28 -14 -56 -27q-51 -27 -71 -87 q69 12 61 12q37 0 62.5 -27.5t25.5 -70.5q0 -48 -37.5 -81.5t-90.5 -33.5q-59 0 -96.5 42t-37.5 112z" />
<glyph unicode="&#x201d;" horiz-adv-x="697" d="M54 1222q0 50 37 84t83 34q67 0 107.5 -53.5t40.5 -148.5q0 -89 -38 -153t-89 -64q-37 0 -37 45q0 18 25 63q26 49 31 87q-29 -11 -52 -11q-46 0 -77 33.5t-31 83.5zM383 994q0 28 56 63q63 40 76 96q-123 7 -123 102q0 47 32 79.5t81 32.5q128 0 128 -161 q0 -99 -69 -178q-66 -74 -137 -74q-44 0 -44 40z" />
<glyph unicode="&#x201e;" horiz-adv-x="818" d="M65 103q0 111 116 111q148 0 148 -191q0 -94 -53 -155t-125 -61q-48 0 -48 45q0 25 51 65t53 100q-34 -12 -52 -12q-40 0 -65 27.5t-25 70.5zM437 110q0 53 36.5 88t92.5 35q76 0 125.5 -67t49.5 -171q0 -91 -55 -153q-49 -54 -108 -54q-50 0 -50 52q0 21 36.5 54 t36.5 69q0 22 -15 63h-18q-131 0 -131 84z" />
<glyph unicode="&#x2022;" horiz-adv-x="731" d="M70 618q0 122 85.5 209t208.5 87q121 0 209 -87q88 -89 88 -209t-88 -209q-86 -85 -209 -85t-208.5 85.5t-85.5 208.5z" />
<glyph unicode="&#x2026;" horiz-adv-x="1740" d="M174 87q0 63 34.5 104.5t82.5 41.5q101 0 101 -137q0 -58 -31.5 -92.5t-80.5 -34.5q-47 0 -76.5 32t-29.5 86zM734 60q0 58 34.5 93t88.5 35q46 0 76 -32t30 -83q0 -57 -35 -94t-87 -37q-45 0 -76 33.5t-31 84.5zM1316 90q0 141 122 141q50 0 88.5 -42t38.5 -104 q0 -113 -132 -113q-117 0 -117 118z" />
<glyph unicode="&#x202f;" horiz-adv-x="357" />
<glyph unicode="&#x2039;" horiz-adv-x="617" d="M54 601q0 22 104 116q220 198 300 198q32 0 53.5 -17t21.5 -41q0 -23 -89 -77q-127 -78 -225 -176q93 -89 241 -182q98 -63 98 -95q0 -24 -21.5 -42.5t-51.5 -18.5q-69 0 -239 139q-192 156 -192 196z" />
<glyph unicode="&#x203a;" horiz-adv-x="644" d="M60 876q0 19 15 34.5t38 15.5q72 0 274 -118q194 -115 194 -172q0 -48 -130.5 -213t-196.5 -165q-33 0 -57 19.5t-24 42.5q0 13 79 84q105 94 188 214q-85 71 -262 158q-118 59 -118 100z" />
<glyph unicode="&#x205f;" horiz-adv-x="447" />
<glyph unicode="&#x20ac;" horiz-adv-x="1044" d="M7 495q0 49 53 66q0 43 6 99q-58 0 -58 62q0 64 86 86q35 121 103 206q138 172 378 172q142 0 257 -59q144 -72 144 -201q0 -85 -80 -85q-38 0 -54 26q-16 37 -47 93q-61 68 -220 68q-165 0 -255 -124q-28 -38 -45 -79q62 2 119 2q205 0 275 -11q103 -16 103 -76 q0 -77 -115 -77q-9 0 -126 9q-105 7 -158 7q-77 0 -137 -3q-6 -49 -7 -107q189 -4 343 -34q130 -27 130 -98q0 -66 -83 -66q-16 0 -180 30q-111 21 -200 22q44 -244 282 -244q169 0 289 120q14 20 53 77q31 46 69 46q30 0 55 -22.5t25 -52.5q0 -89 -179 -227 q-126 -97 -332 -97q-204 0 -322 134q-91 105 -113 268q-59 13 -59 70z" />
<glyph unicode="&#x2122;" horiz-adv-x="1174" d="M23 1108q0 55 60 55q15 0 53 -5t62 -5q73 0 162 14.5t102 14.5q55 0 55 -49q0 -73 -183 -99v-366q0 -29 -19.5 -51t-45.5 -22t-44 21.5t-18 51.5l2 362q-81 2 -114 10q-72 16 -72 68zM545 681q0 42 10 168q10 122 15 155q8 78 23.5 131.5t67.5 53.5q41 0 69 -46 q12 -18 66 -140q40 71 81 141q36 50 78 50q45 0 63 -44q14 -32 25 -130l8 -71q23 -228 23 -266q0 -88 -64 -88q-44 0 -57 46q-9 29 -15 135q-6 134 -19 227q-93 -157 -134 -157q-43 0 -92 104q-12 -137 -24 -273q-14 -85 -65 -85q-59 0 -59 89z" />
<glyph unicode="&#x25fc;" horiz-adv-x="1113" d="M0 0v1114h1114v-1114h-1114z" />
</font>
</defs>
</svg>
